<?xml version="1.0" encoding="utf-8"?>
<!-- Generator: Adobe Illustrator 15.1.0, SVG Export Plug-In . SVG Version: 6.00 Build 0)  -->
<!DOCTYPE svg PUBLIC "-//W3C//DTD SVG 1.1//EN" "http://www.w3.org/Graphics/SVG/1.1/DTD/svg11.dtd">
<svg version="1.1" id="Layer_1" xmlns="http://www.w3.org/2000/svg" xmlns:xlink="http://www.w3.org/1999/xlink" x="0px" y="0px"
	 width="528px" height="343px" viewBox="40.138 77.445 528 343" enable-background="new 40.138 77.445 528 343"
	 xml:space="preserve">
<g id="_284014272">
	<path d="M407.792,132.435c0.255,2.807,3.656,8.277,2.636,19.389c-0.681,7.313-1.474,11.962-4.904,17.234
		c-2.777,4.28-7.029,8.022-12.019,9.411c-6.689,1.899-10.715,0.567-13.975-4.791c-0.425-0.68,0.368,0.51-0.312-0.454
		c-0.028-0.057-0.142-0.17-0.17-0.227c-0.029-0.057-0.114-0.142-0.171-0.227c-3.741,3.572,0.369,6.492-0.765,8.277
		c-1.588-0.567-1.22-1.928-1.531-3.94c-1.332-8.674-2.636-4.337-7.398-9.978c-0.028-0.057-0.142-0.17-0.198-0.255
		c-2.239,1.417-3.033,4.875-1.645,8.079c-1.615-0.142,0.114,0.142-1.219-0.453c-1.219-0.567,0.567-0.425-1.615-0.539
		c0.851,7.54,2.636,7.625,6.009,10.885c-4.648-1.247-5.499-6.094-6.718-8.192c-0.681-1.162-1.275-2.013-1.956-3.26
		c-5.811-10.573,2.296-22.592,9.809-21.969c2.834,0.255,0.935,0.794,3.373-0.765c4.479-2.892,8.872,2.778,7.029,5.499
		c-0.736,1.105-1.672,0.964-2.268,0.992l-0.992,0.057c0.709,1.333-0.425,0.964,1.588,1.077c2.891,0.142,2.834-4.139,3.288-5.216
		c0.709,7.767-6.378,7.965-5.442,2.636c1.275,0.17,3.543,2.126,3.401-1.304c-0.198-5.896-10.318-4.167-8.872,2.239
		c-1.673,0.028-1.786-0.312-3.09,0.567c4.252,12.529,20.154,6.038,15.392-5.357c-1.162-2.721-3.118-4.706-6.18-6.095
		c-10.63-4.847-25.682,6.888-24.094,21.827c1.021,0.737,1.502,1.531,2.721,2.325c1.389,0.907,2.353,0.936,2.154,3.09
		c-2.636,0.369-2.579-2.835-4.989-4.904c-2.721-2.325-7.795-2.438-7.795-1.389l-0.028,0.51c0,0.057,0.028,0.198,0.057,0.255
		c0.028,0.199,0.312,0.34,0.567,1.559c-4.876-0.198-9.553,1.502-10.205,6.123c2.835,0.737,2.183-0.028,3.997-0.028
		c1.502,0,0.651-0.227,1.332,0.397c-0.737,1.842-5.216,0.453-7.37,6.236c-1.332,3.6-0.227,9.127,3.742,9.071
		c1.445-2.665,2.607-6.945,9.184-8.164c9.496-1.757,19.871,9.298,36.482,6.463c1.785-0.283,5.272-1.105,6.888-2.268
		c-3.939-0.34-12.415,1.587-17.631-4.394c-0.879-1.021-2.722-3.685-2.239-4.706c2.551,3.628,3.968,7.682,12.132,8.391
		c14.599,1.247,26.192-9.185,29.764-23.216c1.645-6.548,1.474-4.507,0.482-8.788c0.085,0.085,0.227,0.085,0.255,0.255
		c0.057,0.17,0.198,0.198,0.255,0.255c1.729,1.984,0.964,2.353,4.819,2.438c-1.276-2.58-1.588-1.163-3.062-6.208
		c-1.276-4.422-0.879-8.079-1.418-9.581c-1.474-4.252-0.51-2.92-1.36-5.386c-0.396-1.219-0.681-2.211-1.021-3.289
		c-0.453-1.389-0.681-2.494-1.701-3.373C409.407,130.365,408.954,131.698,407.792,132.435z"/>
	<path d="M260.844,98.986c-0.283-3.43,2.154-10.999-1.814-11.225c-0.255,7.54-3.77,11.537-3.26,20.522
		c0.624,11.197,2.608,10.318,4.989,12.586c1.049,0.964,1.871,2.041,2.607,3.345c-1.474-1.644-5.612-6.803-9.553-4.507
		c-0.198,0.737,1.191,1.162,2.778,3.628c1.049,1.644,1.871,3.43,2.637,4.847c1.87,3.487,3.345,5.896,6.435,8.617
		c3.118,2.807,4.053,3.713,6.718,3.855c5.471,0.283,5.669,2.041,8.447,2.75c2.296,0.567,4.252,0.283,3.656,3.458
		c-2.976,0.17-3.883-3.175-7.88-4.706c-2.665-1.02-9.156-1.53-10.12,1.616c1.276,1.19,1.871,0.539,2.438,1.616
		c-2.069,1.36-4.195,0.51-5.216,8.135c3.685,1.616,5.98,2.551,10.006,0.369c-0.17,1.984-1.275,3.43,1.361,3.543
		c1.927,0.114,18.878-5.442,23.187,14.003l4.904-0.454c-0.567-15.194-18.907-30.529-27.751-44.646
		c-3.543-5.613-6.236-9.808-6.236-18.397c0-6.52,2.041-11.594,5.499-15.109c1.871-1.899,3.146-3.203,6.01-4.11
		c3.43-1.105,6.01-0.425,8.476,0.793c-0.085-1.757-1.021-2.41-3.458-3.543c-2.438-1.105-3.827-0.68-6.577-0.765
		c1.814-2.069,1.588-0.425,2.438-3.26C261.581,82.63,262.204,97.058,260.844,98.986z"/>
	<path d="M328.96,85.153c-2.636,0.255-4.11-0.284-6.378,0.737c-0.992,0.425-1.502,0.766-2.239,1.276
		c-1.19,0.793-1.417,0.822-1.53,2.353c9.184-4.564,17.574,4.139,19.417,12.302c4.054,18.142-11.339,32.145-22.054,45.638
		c-3.798,4.791-11.509,15.817-11.168,23.726l4.733,0.085c2.948-10.006,8.702-15.393,18.596-14.57
		c1.615,0.113,3.316,0.794,4.62,0.794c2.494,0,1.474-2.098,1.304-3.628c3.26,1.871,6.52,1.502,9.922-0.312
		c-0.143-3.969-1.248-6.491-4.366-7.909c-0.085-0.028-0.227-0.085-0.283-0.113c-0.085-0.028-0.198-0.085-0.312-0.142
		c0.822-1.219,1.021-0.369,2.296-1.616c-0.992-3.146-9.1-3.6-13.89,0.878c-1.077,1.021-2.324,2.325-4.082,2.183
		c-0.566-2.863,1.219-2.948,3.288-3.345c2.268-0.454,2.863-1.531,5.131-2.268c4.224-1.361,3.799,1.446,10.177-4.195
		c2.947-2.58,4.62-5.018,6.378-8.277c2.466-4.649,2.806-5.301,6.065-9.071c-5.952-1.587-8.333,3.26-10.431,5.046
		c3.996-7.002,7.114-2.154,8.078-15.591c0.652-9.326-2.749-13.493-3.26-21.373c-4.337,0.34-0.992,9.014-2.041,11.253
		c-0.794-2.608-0.737-4.649-2.013-7.229c-1.105-2.154-2.664-3.912-4.252-5.215c-4.054-3.289-8.249-4.337-14.258-4.649
		C327.203,84.473,327.515,83.565,328.96,85.153z"/>
	<path d="M407.792,132.973c0.708-3.401,10.998-12.5,18.198-8.22c1.928,1.162,0.51,1.304,2.721,1.927
		c1.105,0.312,0.822-0.454,1.673,0.737c0.624,0.907,0.396,1.445,0.312,2.891l-0.396-0.708c-0.368-0.708-0.879-2.92-3.118-1.956
		c-2.211,0.936-1.616,2.381-1.843,4.847c-0.057,0-0.142-0.113-0.142-0.057c-0.227,0.907-0.057-0.17-0.51,0.028
		c-1.105,0.454,0.085-0.595-0.596,0.454c0.879,3.543,5.726,4.167,8.617,0.284c3.26-4.394,0.341-7.541-1.021-9.298
		c-4.592-5.981-13.181-4.734-19.417-0.454l-4.62,3.515c0.793-1.984,0.821-0.539,1.134-2.211c-3.231-4.819-4.734-7.313-8.816-11.197
		c-3.175-2.976-2.579-1.672-6.973-2.778c-2.637-0.652-4.593-1.984-6.804-3.118c0.057-0.057,0.17-0.17,0.198-0.085l0.936,0.028
		c1.588,0.482,7.796,4.762,11.906,1.672c-0.086-2.154-0.539-0.737-1.56-2.353c4.025,0.255,7.483,0.312,8.079-4.96l-6.095-0.397
		c0.057,0.057,0.766-0.113,1.134-0.992c0.453-1.105,0.227-0.652,0.085-1.843c-1.615,0.425-3.118,1.502-4.933,1.984
		c-5.073,1.304-12.897-1.559-18.142-2.834c-3.883-0.936-8.334-1.729-12.614-1.843c-5.244-0.142-8.787,0.794-13.407,1.333
		c0.566,4.507,1.36,5.839,1.219,11.338c11.707,0.539,11.905,6.917,17.263,7.852c0.397-2.409-0.368-2.268-0.425-4.195
		c1.672,1.049,0.766,2.069,3.43,2.495c1.049,0.17,1.928,0.028,2.92,0.142c1.36,0.17,1.36,0.567,2.607,0.652
		c0.624-2.211,0.567-3.742-0.708-5.953c-0.539-0.907-0.539-0.397-0.907-1.474c1.587-0.283,1.757,0.284,3.798-0.368
		c-0.765-2.126,0.341-0.454-1.474-1.758c-1.105-0.793-0.766-0.227-1.417-1.445l3.656,2.069c0.368,1.786-0.17-1.446,0,0.822
		l0.17,1.049c15.138,3.685,20.807,16.895,23.018,19.19c0.595,0.595,0.142,0.255,0.822,0.482l0.907,0.142
		c-10.602,14.797-6.406,15.959-8.447,21.686c-0.341-10.772-0.511-16.441-7.257-22.394c-10.318-9.099-20.154,1.474-14.372,4.734
		c0.766-1.134,0.17-1.077,0.794-2.409c-0.028,2.494,0.34,3.656,2.239,6.491c3.26-0.964,6.123-10.148,12.132,0.113
		c1.503,2.608,2.495,1.616,3.572,4.224c-0.879-0.482-0.227-0.113-0.851-0.567c-2.522-1.899-5.046-2.41-4.818,1.049
		c1.389-0.737,2.239-0.198,3.231,0.51c-2.778-0.68-2.154-0.454-4.252,0.765c1.162,1.701,2.324,1.049,3.939,5.698
		c2.126,6.066,1.729,10.205,4.536,14.797l2.664,4.422c0.879,1.333,1.021,0,0.822,1.304l0.057-1.701
		c0.028-0.113,0.085-0.255,0.113-0.369c0.028-0.085,0.057-0.227,0.113-0.34c0.283,1.361,0.368,1.502,0.879,2.636
		c0.085,0.199,0.396,0.907,0.51,1.077l1.021,1.134c4.224-5.84,1.956-2.154-0.538-11.764c-0.936-3.628-0.964-6.491-0.709-10.318
		C402.292,145.134,405.354,134.221,407.792,132.973z"/>
	<path d="M488.012,183.628c1.871-0.68,4.224-2.013,5.783-2.466c2.92-0.879,5.074-2.551,8.589-1.956
		c1.417-1.729-0.283-0.566,1.134-1.842c2.522,0.51,3.175,1.389,6.066,1.389l6.123,0.198c1.304-0.17,0.765-2.665,0.227-3.657
		c-0.794-1.474-1.418-1.304-2.069-2.523l3.005-0.028c-2.637-3.94-7.512-3.231-12.189-3.373c6.491-1.928,9.043,0.567,11.396,0.793
		c12.614,1.191,12.047,12.699,18.368,17.065c2.239,1.559,2.948,1.36,4.054-0.964c1.162,0.879,3.486,4.592,8.079,5.868
		c3.486,0.964,3.854-0.964,4.988-0.425c2.495,1.19,2.863,1.333,6.151,1.049l-1.021-0.907c-0.312-0.227-0.936-0.453-1.304-0.68
		c-1.956-1.077-3.884-4.053-4.961-6.009c-2.607-4.819-3.713-8.873-8.702-13.096c-8.674-7.342-12.812-5.471-15.023-6.69l4.054-0.113
		c-0.255-5.131-8.249-3.77-11.537-3.77l2.126-1.021c0.766-0.397,0.425-0.085,0.964-0.595c-9.383-6.038-23.698,4.139-31.011,10.29
		c-4.338,3.657-14.287,13.777-18.029,16.129c-2.409,1.502-5.13,2.523-7.427,3.912c2.948-0.028,8.618-1.786,11.622-2.636
		C481.436,186.435,484.384,184.875,488.012,183.628z"/>
	<path d="M459.808,168.775c-1.105-0.17-0.426-0.454-1.899-1.502c-4.394,1.077-5.584,13.89-13.748,14.57
		c0.142-3.855,4.394-2.551,3.656-8.788c-0.227-1.729-0.481-1.757-1.332-2.721c-0.794,0.624-3.175,4.677-4.507,6.038
		c-1.729,1.814-4.224,3.543-7.313,3.6c2.239-1.474,5.188-1.474,6.35-5.103c1.077-3.486-1.474-4.224-1.814-6.321
		c-0.142-0.992-0.057-0.539,0.057-1.417l0.312-1.389c-1.248-0.822-0.936-1.021-2.183-1.531c-1.899,3.77-3.146,9.071-10.148,11.735
		c-3.231,1.219-6.321,1.219-9.638,0.397c-4.62-1.105-5.386-3.118-7.2-3.628c-0.51,0.567-0.992,1.446-1.445,2.098l-1.531,2.353
		c19.134,25.653,61.909,13.634,62.022-3.289l-2.552,0.652c0.567-5.698,4.31-2.466,0.964-12.473
		c-1.587,0.198-3.685,1.247-5.158,2.296C460.743,165.713,460.544,166.195,459.808,168.775z"/>
	<path d="M297.496,99.751c-1.531-1.049-6.804-3.175-6.321,1.021c1.19,10.658,10.658,4.309,10.998,49.096l1.502,18.624
		c0.057,0.113,0.113,0.255,0.17,0.34c0.028,0.085,0.086,0.227,0.143,0.34l1.162-3.402c0.396-1.644,0.396-2.268,0.425-4.082
		l0.822-26.05c-0.085-0.085-0.227-0.283-0.283-0.198l-1.191-0.851c-0.425-0.567-0.255-0.425-0.198-1.417
		c2.41-0.085,1.729,1.701,2.807-8.136c1.758-16.101,9.156-16.469,9.468-26.164c-2.948-0.879-4.394-0.425-6.435,0.822
		c0.737-6.661-0.624-9.042-4.791-14.031l-1.785-1.587c-1.928,1.19-3.799,3.912-5.074,6.236
		C296.816,94.167,297.099,95.357,297.496,99.751z"/>
	<path d="M270.142,110.381c5.952,2.977,8.759,4.451,13.039,8.873c1.843,1.928,3.43,3.884,4.876,6.18
		c2.239,3.6,2.069,4.932,4.45,6.52c-1.19,0.936-1.871-1.729-5.414-0.652c1.389,2.069,3.09,3.515,4.705,5.953
		c7.313,11.027,6.265,20.438,9.921,24.492c0.397-8.618,0.369-14.173-2.466-22.252c-5.017-14.429-12.557-28.347-25.427-35.858
		C269.688,101.225,270.34,101.679,270.142,110.381z"/>
	<path d="M306.283,161.773l2.013-3.628c0.793-1.729,1.445-7.2,3.968-13.323c3.799-9.156,5.925-9.185,8.675-13.578
		c-2.58-0.652-4.252,0.708-6.095,1.757c1.53-2.324,1.445-0.68,2.721-3.175c2.041-3.883,3.827-7.03,6.86-10.176
		c4.705-4.875,7.059-6.038,13.465-9.27c0-2.522,0.198-5.782-0.822-7.908c-3.912,0.51-9.922,6.151-12.841,9.241
		c-7.285,7.739-12.416,18.567-15.874,29.027C305.829,148.337,306.029,153.694,306.283,161.773z"/>
	<path d="M484.271,125.858l-0.652,0.113c-1.219,0.283-2.749,0-2.381,4.365c0.368,4.11,2.579,6.945,4.45,10.12
		c0.794,1.304,2.608,3.231,1.361,4.819c-1.531,1.163-3.033-1.701-3.997-3.175c-1.645-2.551-2.353-3.288-5.868-3.061
		c-0.028,0.028-0.34,1.219-0.368,1.247l-0.766,1.587c-1.559-1.899-8.334-2.892-9.723,1.757c9.042-1.644,13.663,11.991,17.632,7.313
		c0.85-0.992,0.963-1.814,2.324-2.353c2.013-0.794,2.353,0.368,4.082-0.567c2.692-1.446,4.053-8.532,1.021-14.032
		c-2.863-5.216-5.557-6.548-4.848-14.06C484.299,120.869,483.959,123.08,484.271,125.858z"/>
	<path d="M455.669,131.216c0.425-1.077,1.105-1.616,2.154-2.126c3.203-1.559,2.636-0.766,2.466-1.729
		c-2.126-1.162-10.347,4.139-13.237,8.816c-3.288,5.357-3.884,12.955,0,17.603c3.939,4.734,11.452,5.754,15.363,0.511
		c4.337-5.84,0.766-13.833-7.229-12.699c-0.198,5.102,1.021,2.692,3.346,3.628c1.417,0.567,3.032,2.551,2.438,4.309
		c-0.368-0.567-1.389-7.058-6.974-2.296c-0.368,4.592,1.105,3.543,3.288,3.855c-2.324,5.669-17.433-4.365-3.004-18.567
		C454.989,131.839,454.79,131.726,455.669,131.216z"/>
	<path d="M450.991,191.424c2.75,1.786,13.947-1.729,16.187-2.693c6.265-2.664,10.176-5.811,14.399-10.658
		c0.681-0.793,1.446-2.069,2.041-3.09c2.041-3.458,5.442-10.403,6.123-14.598c1.19-7.427-1.928-5.896-4.082-5.953
		c-1.814,2.098-1.502,3.373-1.956,6.746c-1.644,12.444-8.532,21.374-19.615,25.484c-4.195,1.559-3.601,0.878-9.666,3.43
		c-0.567,0.227-1.021,0.369-1.645,0.567c-0.255,0.085-0.681,0.227-0.907,0.34L450.991,191.424z"/>
	<path d="M455.669,131.216c-0.624,2.58-1.871,5.981,1.105,7.143c1.077-0.793,1.049-0.907,1.559-2.154
		c1.871,0.397-0.425-0.057,1.475,1.021c1.36-1.446,1.729-3.6,5.952-4.96c4.791-1.531,5.953,0.142,9.298,0.851l-2.409,1.701
		c1.615,1.049,1.758-0.085,3.997,1.927c2.041,1.814,1.898,0.992,3.911,1.928c1.134,0.51,2.126,1.786,2.892,2.948
		c1.077,1.701,1.247,2.976,3.601,3.231c-0.624-2.75-2.778-5.5-4.167-7.852c-2.041-3.487-1.645-4.904-4.621-7.285
		c-7.172-5.641-12.558-3.657-18.255-5.272c0.566,3.912,1.814,2.154,2.807,3.855c-1.22,0.454-2.098-0.227-4.082,0.794
		C457.228,129.855,456.775,130.649,455.669,131.216z"/>
	<path d="M322.894,183.401c-2.409,3.033-4.337,4.195-7.937,2.353c-2.466-1.276-4.535-3.742-5.018-7.058l-4.847,0.17
		c0.566,9.496,12.841,18.255,20.154,10.46c9.269-9.921-4.394-16.526-6.634-9.865C317.338,183.203,320.513,183.657,322.894,183.401z"
		/>
	<path d="M302.939,178.81l-4.848-0.057c-0.481,4.677-5.811,8.815-9.524,7.682c-1.247-0.368-2.777-2.098-3.288-3.175
		c2.665,1.304,5.131-0.907,4.139-3.827c-1.445-4.337-10.034-3.402-9.723,3.77c0.085,2.495,1.672,4.649,3.062,6.095
		C290.098,196.951,302.116,188.788,302.939,178.81z"/>
	<path d="M298.261,172.12c-0.651,0.199-2.494,0.425-2.041,3.26c0.794,4.847,13.606,2.381,13.606,2.381
		c1.389-0.539,2.183-1.729,1.984-3.345c-0.17-1.786-1.077-2.268-2.92-2.523C306.793,171.581,300.047,171.553,298.261,172.12z"/>
	<path d="M200.24,132.435c-0.255,2.807-3.629,8.277-2.608,19.389c0.652,7.313,1.475,11.962,4.904,17.234
		c2.75,4.28,7.03,8.022,11.99,9.411c6.69,1.899,10.715,0.567,13.976-4.791c0.425-0.68-0.369,0.51,0.312-0.454
		c0.057-0.057,0.142-0.17,0.17-0.227c0.057-0.057,0.113-0.142,0.198-0.227c3.714,3.572-0.368,6.492,0.766,8.277
		c1.587-0.567,1.19-1.928,1.502-3.94c1.361-8.674,2.665-4.337,7.398-9.978c0.057-0.057,0.142-0.17,0.199-0.255
		c2.239,1.417,3.061,4.875,1.644,8.079c1.616-0.142-0.113,0.142,1.247-0.453c1.219-0.567-0.595-0.425,1.616-0.539
		c-0.851,7.54-2.665,7.625-6.038,10.885c4.677-1.247,5.527-6.094,6.746-8.192c0.681-1.162,1.248-2.013,1.956-3.26
		c5.812-10.573-2.296-22.592-9.808-21.969c-2.835,0.255-0.964,0.794-3.373-0.765c-4.507-2.892-8.873,2.778-7.059,5.499
		c0.737,1.105,1.673,0.964,2.268,0.992l0.992,0.057c-0.68,1.333,0.454,0.964-1.587,1.077c-2.863,0.142-2.835-4.139-3.288-5.216
		c-0.681,7.767,6.406,7.965,5.471,2.636c-1.275,0.17-3.544,2.126-3.43-1.304c0.198-5.896,10.346-4.167,8.9,2.239
		c1.645,0.028,1.786-0.312,3.062,0.567c-4.252,12.529-20.154,6.038-15.364-5.357c1.134-2.721,3.09-4.706,6.151-6.095
		c10.63-4.847,25.682,6.888,24.095,21.827c-1.021,0.737-1.474,1.531-2.693,2.325c-1.389,0.907-2.381,0.936-2.183,3.09
		c2.637,0.369,2.58-2.835,5.018-4.904c2.722-2.325,7.767-2.438,7.767-1.389l0.028,0.51c0,0.057-0.028,0.198-0.028,0.255
		c-0.057,0.199-0.34,0.34-0.595,1.559c4.875-0.198,9.581,1.502,10.232,6.123c-2.862,0.737-2.211-0.028-3.996-0.028
		c-1.531,0-0.681-0.227-1.361,0.397c0.737,1.842,5.216,0.453,7.37,6.236c1.333,3.6,0.228,9.127-3.713,9.071
		c-1.445-2.665-2.637-6.945-9.185-8.164c-9.524-1.757-19.899,9.298-36.51,6.463c-1.786-0.283-5.272-1.105-6.86-2.268
		c3.912-0.34,12.388,1.587,17.604-4.394c0.879-1.021,2.749-3.685,2.268-4.706c-2.579,3.628-3.969,7.682-12.16,8.391
		c-14.599,1.247-26.192-9.185-29.736-23.216c-1.672-6.548-1.474-4.507-0.481-8.788c-0.113,0.085-0.227,0.085-0.283,0.255
		c-0.028,0.17-0.198,0.198-0.227,0.255c-1.729,1.984-0.992,2.353-4.848,2.438c1.275-2.58,1.587-1.163,3.062-6.208
		c1.275-4.422,0.907-8.079,1.417-9.581c1.503-4.252,0.539-2.92,1.36-5.386c0.426-1.219,0.681-2.211,1.049-3.289
		c0.426-1.389,0.652-2.494,1.701-3.373C198.623,130.365,199.077,131.698,200.24,132.435z"/>
	<path d="M200.24,132.973c-0.681-3.401-10.971-12.5-18.198-8.22c-1.928,1.162-0.511,1.304-2.693,1.927
		c-1.105,0.312-0.851-0.454-1.672,0.737c-0.652,0.907-0.397,1.445-0.341,2.891l0.426-0.708c0.34-0.708,0.85-2.92,3.09-1.956
		c2.211,0.936,1.644,2.381,1.87,4.847c0.057,0,0.113-0.113,0.142-0.057c0.228,0.907,0.028-0.17,0.482,0.028
		c1.134,0.454-0.085-0.595,0.595,0.454c-0.878,3.543-5.726,4.167-8.617,0.284c-3.26-4.394-0.34-7.541,1.021-9.298
		c4.593-5.981,13.182-4.734,19.446-0.454l4.62,3.515c-0.822-1.984-0.822-0.539-1.134-2.211c3.231-4.819,4.705-7.313,8.815-11.197
		c3.146-2.976,2.58-1.672,6.974-2.778c2.636-0.652,4.563-1.984,6.803-3.118c-0.085-0.057-0.198-0.17-0.227-0.085l-0.936,0.028
		c-1.587,0.482-7.795,4.762-11.877,1.672c0.057-2.154,0.538-0.737,1.53-2.353c-4.024,0.255-7.455,0.312-8.078-4.96l6.095-0.397
		c-0.058,0.057-0.766-0.113-1.135-0.992c-0.453-1.105-0.227-0.652-0.085-1.843c1.616,0.425,3.146,1.502,4.933,1.984
		c5.103,1.304,12.897-1.559,18.142-2.834c3.884-0.936,8.362-1.729,12.643-1.843c5.216-0.142,8.787,0.794,13.38,1.333
		c-0.567,4.507-1.333,5.839-1.219,11.338c-11.679,0.539-11.878,6.917-17.264,7.852c-0.368-2.409,0.369-2.268,0.426-4.195
		c-1.645,1.049-0.766,2.069-3.431,2.495c-1.02,0.17-1.927,0.028-2.891,0.142c-1.39,0.17-1.39,0.567-2.637,0.652
		c-0.623-2.211-0.538-3.742,0.737-5.953c0.538-0.907,0.538-0.397,0.879-1.474c-1.56-0.283-1.758,0.284-3.799-0.368
		c0.766-2.126-0.34-0.454,1.475-1.758c1.105-0.793,0.793-0.227,1.417-1.445l-3.657,2.069c-0.368,1.786,0.171-1.446,0,0.822
		l-0.142,1.049c-15.137,3.685-20.834,16.895-23.017,19.19c-0.596,0.595-0.171,0.255-0.851,0.482l-0.907,0.142
		c10.63,14.797,6.435,15.959,8.476,21.686c0.312-10.772,0.481-16.441,7.257-22.394c10.29-9.099,20.154,1.474,14.343,4.734
		c-0.765-1.134-0.17-1.077-0.765-2.409c0,2.494-0.369,3.656-2.269,6.491c-3.231-0.964-6.122-10.148-12.104,0.113
		c-1.53,2.608-2.522,1.616-3.6,4.224c0.878-0.482,0.255-0.113,0.878-0.567c2.495-1.899,5.018-2.41,4.791,1.049
		c-1.389-0.737-2.239-0.198-3.203,0.51c2.75-0.68,2.126-0.454,4.224,0.765c-1.134,1.701-2.296,1.049-3.94,5.698
		c-2.126,6.066-1.7,10.205-4.507,14.797l-2.693,4.422c-0.878,1.333-0.992,0-0.821,1.304l-0.057-1.701
		c0-0.113-0.085-0.255-0.085-0.369c-0.029-0.085-0.086-0.227-0.143-0.34c-0.255,1.361-0.368,1.502-0.85,2.636
		c-0.085,0.199-0.426,0.907-0.539,1.077l-0.992,1.134c-4.252-5.84-1.956-2.154,0.511-11.764c0.964-3.628,0.964-6.491,0.708-10.318
		C205.739,145.134,202.705,134.221,200.24,132.973z"/>
	<path d="M120.019,183.628c-1.843-0.68-4.195-2.013-5.782-2.466c-2.892-0.879-5.074-2.551-8.561-1.956
		c-1.418-1.729,0.255-0.566-1.163-1.842c-2.522,0.51-3.175,1.389-6.065,1.389l-6.095,0.198c-1.332-0.17-0.766-2.665-0.255-3.657
		c0.793-1.474,1.417-1.304,2.098-2.523l-3.005-0.028c2.607-3.94,7.512-3.231,12.16-3.373c-6.491-1.928-9.014,0.567-11.366,0.793
		c-12.643,1.191-12.048,12.699-18.369,17.065c-2.268,1.559-2.948,1.36-4.054-0.964c-1.162,0.879-3.486,4.592-8.078,5.868
		c-3.516,0.964-3.884-0.964-5.018-0.425c-2.494,1.19-2.863,1.333-6.123,1.049l0.992-0.907c0.312-0.227,0.936-0.453,1.304-0.68
		c1.956-1.077,3.912-4.053,4.961-6.009c2.608-4.819,3.742-8.873,8.702-13.096c8.675-7.342,12.812-5.471,15.053-6.69l-4.054-0.113
		c0.227-5.131,8.221-3.77,11.537-3.77l-2.126-1.021c-0.794-0.397-0.454-0.085-0.992-0.595c9.383-6.038,23.697,4.139,31.011,10.29
		c4.337,3.657,14.286,13.777,18.028,16.129c2.438,1.502,5.159,2.523,7.427,3.912c-2.92-0.028-8.617-1.786-11.594-2.636
		C126.595,186.435,123.676,184.875,120.019,183.628z"/>
	<path d="M148.224,168.775c1.105-0.17,0.453-0.454,1.899-1.502c4.394,1.077,5.584,13.89,13.776,14.57
		c-0.143-3.855-4.423-2.551-3.657-8.788c0.198-1.729,0.454-1.757,1.304-2.721c0.822,0.624,3.175,4.677,4.508,6.038
		c1.729,1.814,4.224,3.543,7.312,3.6c-2.239-1.474-5.187-1.474-6.32-5.103c-1.106-3.486,1.474-4.224,1.785-6.321
		c0.142-0.992,0.085-0.539-0.057-1.417l-0.312-1.389c1.275-0.822,0.964-1.021,2.183-1.531c1.928,3.77,3.175,9.071,10.177,11.735
		c3.203,1.219,6.32,1.219,9.609,0.397c4.648-1.105,5.414-3.118,7.199-3.628c0.539,0.567,1.021,1.446,1.446,2.098l1.559,2.353
		c-19.134,25.653-61.937,13.634-62.05-3.289l2.551,0.652c-0.566-5.698-4.28-2.466-0.964-12.473c1.588,0.198,3.686,1.247,5.159,2.296
		C147.288,165.713,147.487,166.195,148.224,168.775z"/>
	<path d="M123.789,125.858l0.623,0.113c1.219,0.283,2.778,0,2.381,4.365c-0.34,4.11-2.579,6.945-4.45,10.12
		c-0.765,1.304-2.579,3.231-1.36,4.819c1.53,1.163,3.062-1.701,3.997-3.175c1.644-2.551,2.353-3.288,5.896-3.061
		c0,0.028,0.341,1.219,0.341,1.247l0.765,1.587c1.56-1.899,8.362-2.892,9.724,1.757c-9.043-1.644-13.663,11.991-17.632,7.313
		c-0.822-0.992-0.964-1.814-2.324-2.353c-2.013-0.794-2.324,0.368-4.082-0.567c-2.693-1.446-4.025-8.532-1.021-14.032
		c2.863-5.216,5.584-6.548,4.847-14.06C123.761,120.869,124.073,123.08,123.789,125.858z"/>
	<path d="M152.363,131.216c-0.426-1.077-1.077-1.616-2.154-2.126c-3.175-1.559-2.637-0.766-2.438-1.729
		c2.098-1.162,10.347,4.139,13.238,8.816c3.288,5.357,3.854,12.955-0.028,17.603c-3.912,4.734-11.452,5.754-15.364,0.511
		c-4.337-5.84-0.736-13.833,7.257-12.699c0.17,5.102-1.021,2.692-3.345,3.628c-1.445,0.567-3.033,2.551-2.438,4.309
		c0.368-0.567,1.36-7.058,6.944-2.296c0.397,4.592-1.105,3.543-3.288,3.855c2.353,5.669,17.462-4.365,3.033-18.567
		C153.071,131.839,153.269,131.726,152.363,131.216z"/>
	<path d="M157.068,191.424c-2.778,1.786-13.946-1.729-16.186-2.693c-6.293-2.664-10.205-5.811-14.429-10.658
		c-0.651-0.793-1.417-2.069-2.041-3.09c-2.041-3.458-5.414-10.403-6.095-14.598c-1.19-7.427,1.899-5.896,4.054-5.953
		c1.814,2.098,1.531,3.373,1.956,6.746c1.673,12.444,8.561,21.374,19.616,25.484c4.195,1.559,3.6,0.878,9.666,3.43
		c0.595,0.227,1.049,0.369,1.644,0.567c0.284,0.085,0.681,0.227,0.936,0.34L157.068,191.424z"/>
	<path d="M152.363,131.216c0.623,2.58,1.87,5.981-1.105,7.143c-1.077-0.793-1.021-0.907-1.531-2.154
		c-1.899,0.397,0.426-0.057-1.502,1.021c-1.361-1.446-1.729-3.6-5.953-4.96c-4.79-1.531-5.953,0.142-9.298,0.851l2.41,1.701
		c-1.588,1.049-1.729-0.085-3.997,1.927c-2.013,1.814-1.871,0.992-3.912,1.928c-1.134,0.51-2.126,1.786-2.863,2.948
		c-1.077,1.701-1.247,2.976-3.6,3.231c0.596-2.75,2.778-5.5,4.167-7.852c2.041-3.487,1.615-4.904,4.62-7.285
		c7.144-5.641,12.529-3.657,18.228-5.272c-0.539,3.912-1.814,2.154-2.807,3.855c1.247,0.454,2.098-0.227,4.11,0.794
		C150.831,129.855,151.285,130.649,152.363,131.216z"/>
	<path d="M201.43,338.145c-0.255-2.807-3.656-8.277-2.637-19.389c0.681-7.313,1.475-11.962,4.904-17.234
		c2.778-4.28,7.03-7.994,12.019-9.411c6.69-1.871,10.716-0.567,13.976,4.791c0.425,0.68-0.369-0.51,0.312,0.454
		c0.028,0.057,0.142,0.17,0.17,0.227s0.113,0.17,0.198,0.227c3.714-3.571-0.396-6.491,0.737-8.277
		c1.616,0.567,1.219,1.927,1.53,3.94c1.333,8.703,2.637,4.337,7.398,10.006c0.057,0.028,0.143,0.142,0.199,0.227
		c2.239-1.417,3.062-4.876,1.644-8.079c1.616,0.142-0.113-0.142,1.219,0.482c1.219,0.539-0.566,0.397,1.616,0.51
		c-0.851-7.54-2.637-7.625-6.01-10.885c4.649,1.247,5.499,6.094,6.747,8.192c0.651,1.162,1.247,2.013,1.927,3.26
		c5.812,10.573-2.296,22.592-9.808,21.969c-2.835-0.255-0.936-0.794-3.373,0.765c-4.479,2.892-8.872-2.75-7.03-5.499
		c0.737-1.105,1.673-0.964,2.268-0.992l0.992-0.057c-0.68-1.333,0.426-0.964-1.587-1.077c-2.892-0.142-2.835,4.139-3.288,5.216
		c-0.709-7.767,6.378-7.965,5.442-2.636c-1.247-0.17-3.543-2.126-3.401,1.332c0.198,5.896,10.346,4.139,8.872-2.268
		c1.673-0.028,1.814,0.312,3.09-0.567c-4.252-12.529-20.154-6.01-15.393,5.357c1.163,2.721,3.118,4.706,6.18,6.123
		c10.63,4.819,25.683-6.917,24.095-21.827c-1.021-0.765-1.502-1.559-2.722-2.324c-1.389-0.907-2.353-0.964-2.154-3.118
		c2.637-0.34,2.58,2.835,4.989,4.904c2.722,2.325,7.796,2.438,7.796,1.389l0.028-0.51c0-0.057-0.028-0.198-0.058-0.255
		c-0.028-0.198-0.312-0.312-0.566-1.559c4.876,0.198,9.553-1.474,10.205-6.095c-2.835-0.765-2.183,0-3.997,0
		c-1.503,0-0.652,0.227-1.332-0.397c0.736-1.842,5.215-0.425,7.37-6.236c1.332-3.6,0.227-9.128-3.742-9.071
		c-1.417,2.693-2.607,6.945-9.185,8.164c-9.496,1.757-19.87-9.298-36.481-6.463c-1.786,0.312-5.272,1.105-6.889,2.268
		c3.94,0.34,12.416-1.587,17.632,4.394c0.879,1.021,2.722,3.685,2.239,4.706c-2.551-3.6-3.94-7.682-12.132-8.391
		c-14.599-1.247-26.192,9.185-29.764,23.216c-1.645,6.548-1.475,4.536-0.482,8.788c-0.085-0.085-0.198-0.085-0.255-0.255
		c-0.028-0.17-0.198-0.17-0.255-0.255c-1.729-1.984-0.964-2.325-4.819-2.41c1.275,2.551,1.588,1.134,3.062,6.18
		c1.275,4.422,0.879,8.079,1.417,9.581c1.475,4.252,0.539,2.92,1.361,5.386c0.396,1.219,0.68,2.211,1.021,3.288
		c0.453,1.389,0.68,2.495,1.7,3.374C199.814,340.214,200.268,338.882,201.43,338.145z"/>
	<path d="M348.378,371.594c0.283,3.458-2.155,10.999,1.842,11.225c0.227-7.54,3.742-11.537,3.231-20.523
		c-0.623-11.197-2.607-10.318-4.988-12.557c-1.049-0.992-1.871-2.069-2.608-3.374c1.475,1.672,5.612,6.803,9.581,4.507
		c0.17-0.737-1.19-1.162-2.777-3.6c-1.077-1.672-1.899-3.458-2.665-4.875c-1.871-3.487-3.345-5.896-6.435-8.618
		c-3.118-2.806-4.054-3.713-6.718-3.855c-5.472-0.283-5.67-2.041-8.447-2.721c-2.297-0.567-4.252-0.283-3.657-3.486
		c2.977-0.17,3.884,3.175,7.881,4.705c2.664,1.021,9.155,1.531,10.119-1.616c-1.275-1.19-1.871-0.539-2.438-1.616
		c2.069-1.36,4.195-0.51,5.216-8.135c-3.686-1.587-5.981-2.551-10.007-0.369c0.171-1.956,1.276-3.43-1.332-3.543
		c-1.956-0.114-18.907,5.442-23.216-13.975l-4.903,0.425c0.595,15.194,18.906,30.529,27.751,44.646
		c3.543,5.613,6.236,9.836,6.236,18.425c0,6.491-2.041,11.565-5.5,15.081c-1.87,1.899-3.146,3.203-6.009,4.11
		c-3.43,1.105-6.01,0.425-8.476-0.793c0.085,1.757,1.021,2.409,3.458,3.543c2.438,1.106,3.827,0.709,6.576,0.766
		c-1.785,2.069-1.587,0.425-2.438,3.288C347.641,387.95,347.017,373.521,348.378,371.594z"/>
	<path d="M280.261,385.427c2.637-0.255,4.11,0.284,6.378-0.737c0.992-0.425,1.503-0.766,2.24-1.276
		c1.19-0.765,1.417-0.822,1.53-2.353c-9.185,4.563-17.575-4.139-19.389-12.274c-4.082-18.17,11.31-32.145,22.024-45.667
		c3.799-4.791,11.509-15.789,11.169-23.726l-4.734-0.085c-2.947,10.035-8.702,15.392-18.595,14.57
		c-1.616-0.113-3.316-0.794-4.62-0.794c-2.495,0-1.475,2.098-1.305,3.628c-3.26-1.871-6.52-1.474-9.921,0.34
		c0.142,3.94,1.247,6.491,4.365,7.88c0.085,0.028,0.227,0.085,0.283,0.113c0.086,0.028,0.199,0.085,0.312,0.142
		c-0.822,1.219-1.021,0.369-2.296,1.616c0.992,3.146,9.099,3.6,13.89-0.878c1.077-0.992,2.324-2.296,4.082-2.183
		c0.566,2.863-1.22,2.948-3.289,3.373c-2.268,0.454-2.862,1.502-5.13,2.239c-4.224,1.361-3.771-1.446-10.177,4.195
		c-2.948,2.608-4.62,5.018-6.35,8.277c-2.494,4.648-2.807,5.301-6.095,9.071c5.953,1.587,8.334-3.26,10.432-5.046
		c-3.997,7.03-7.087,2.154-8.079,15.619c-0.651,9.326,2.75,13.464,3.261,21.345c4.337-0.34,0.991-9.014,2.04-11.253
		c0.794,2.608,0.737,4.649,2.013,7.229c1.105,2.154,2.665,3.912,4.252,5.215c4.054,3.317,8.249,4.337,14.259,4.649
		C282.019,386.107,281.707,387.014,280.261,385.427z"/>
	<path d="M201.43,337.606c-0.681,3.401-10.998,12.5-18.198,8.22c-1.928-1.162-0.511-1.304-2.722-1.927
		c-1.105-0.312-0.822,0.453-1.644-0.737c-0.652-0.907-0.426-1.446-0.341-2.891l0.397,0.708c0.368,0.708,0.879,2.92,3.118,1.956
		c2.211-0.936,1.615-2.381,1.842-4.847c0.057,0,0.143,0.113,0.143,0.057c0.227-0.907,0.057,0.17,0.51,0
		c1.134-0.482-0.085,0.595,0.596-0.454c-0.879-3.572-5.727-4.195-8.618-0.284c-3.26,4.394-0.34,7.512,1.021,9.27
		c4.593,6.009,13.182,4.734,19.418,0.454l4.62-3.487c-0.794,1.956-0.822,0.51-1.134,2.183c3.231,4.819,4.734,7.342,8.815,11.197
		c3.175,3.005,2.58,1.673,7.002,2.778c2.607,0.68,4.563,1.984,6.774,3.118c-0.057,0.057-0.17,0.17-0.198,0.085l-0.936-0.028
		c-1.587-0.482-7.795-4.762-11.905-1.673c0.085,2.183,0.539,0.737,1.56,2.353c-4.025-0.227-7.484-0.312-8.079,4.96l6.095,0.397
		c-0.057-0.057-0.766,0.113-1.134,1.021c-0.454,1.105-0.228,0.652-0.085,1.814c1.615-0.425,3.117-1.502,4.932-1.984
		c5.074-1.304,12.897,1.559,18.142,2.834c3.884,0.964,8.362,1.729,12.614,1.842c5.244,0.142,8.816-0.793,13.408-1.332
		c-0.567-4.507-1.36-5.839-1.219-11.338c-11.707-0.51-11.906-6.917-17.264-7.852c-0.396,2.409,0.369,2.268,0.426,4.195
		c-1.673-1.049-0.766-2.041-3.43-2.495c-1.049-0.17-1.928-0.028-2.92-0.142c-1.36-0.17-1.36-0.567-2.608-0.652
		c-0.623,2.211-0.566,3.742,0.709,5.953c0.539,0.935,0.567,0.396,0.907,1.502c-1.56,0.255-1.758-0.312-3.799,0.369
		c0.766,2.126-0.34,0.425,1.475,1.729c1.105,0.822,0.765,0.227,1.417,1.446l-3.656-2.069c-0.369-1.786,0.17,1.446,0-0.822
		l-0.171-1.021c-15.137-3.713-20.806-16.923-23.017-19.219c-0.567-0.596-0.142-0.255-0.822-0.482l-0.907-0.142
		c10.602-14.797,6.406-15.959,8.476-21.685c0.312,10.772,0.482,16.441,7.229,22.422c10.318,9.099,20.154-1.502,14.371-4.762
		c-0.765,1.134-0.17,1.077-0.793,2.409c0.028-2.494-0.341-3.657-2.239-6.491c-3.26,0.992-6.123,10.176-12.133-0.113
		c-1.502-2.608-2.494-1.616-3.571-4.224c0.879,0.51,0.255,0.113,0.851,0.567c2.522,1.899,5.045,2.409,4.818-1.049
		c-1.389,0.765-2.239,0.198-3.231-0.51c2.778,0.68,2.154,0.482,4.252-0.737c-1.162-1.729-2.324-1.077-3.94-5.698
		c-2.126-6.066-1.729-10.233-4.507-14.825l-2.692-4.422c-0.879-1.304-1.021,0-0.822-1.304l-0.057,1.701
		c-0.028,0.113-0.085,0.284-0.113,0.369s-0.057,0.255-0.113,0.34c-0.284-1.36-0.369-1.502-0.879-2.636
		c-0.085-0.199-0.397-0.907-0.511-1.077l-1.021-1.134c-4.224,5.839-1.956,2.155,0.539,11.764c0.936,3.628,0.964,6.491,0.708,10.346
		C206.929,325.446,203.867,336.359,201.43,337.606z"/>
	<path d="M121.209,286.951c-1.871,0.68-4.224,2.013-5.782,2.495c-2.92,0.85-5.074,2.523-8.589,1.927
		c-1.418,1.729,0.283,0.567-1.134,1.871c-2.523-0.539-3.175-1.389-6.066-1.417l-6.123-0.198c-1.304,0.17-0.766,2.665-0.227,3.657
		c0.794,1.474,1.417,1.304,2.069,2.522l-3.005,0.028c2.636,3.94,7.54,3.232,12.188,3.374c-6.491,1.927-9.042-0.539-11.395-0.765
		c-12.614-1.219-12.048-12.728-18.369-17.093c-2.239-1.559-2.947-1.36-4.053,0.964c-1.163-0.879-3.487-4.592-8.079-5.868
		c-3.486-0.964-3.855,0.964-4.989,0.425c-2.494-1.191-2.863-1.333-6.151-1.049l1.021,0.935c0.312,0.199,0.936,0.454,1.305,0.652
		c1.955,1.077,3.883,4.054,4.96,6.009c2.608,4.819,3.714,8.873,8.702,13.096c8.675,7.342,12.813,5.471,15.024,6.718l-4.025,0.085
		c0.227,5.13,8.221,3.77,11.509,3.77l-2.126,1.021c-0.766,0.396-0.426,0.085-0.964,0.595c9.383,6.038,23.697-4.139,31.011-10.29
		c4.337-3.657,14.287-13.776,18.028-16.101c2.409-1.531,5.131-2.551,7.427-3.94c-2.948,0.028-8.617,1.814-11.622,2.636
		C127.785,284.145,124.838,285.704,121.209,286.951z"/>
	<path d="M149.414,301.805c1.105,0.17,0.425,0.482,1.899,1.502c4.394-1.077,5.584-13.89,13.748-14.542
		c-0.143,3.827-4.395,2.551-3.629,8.759c0.198,1.729,0.454,1.757,1.304,2.721c0.794-0.624,3.175-4.649,4.508-6.038
		c1.729-1.786,4.224-3.543,7.313-3.6c-2.24,1.474-5.188,1.474-6.35,5.131c-1.077,3.458,1.474,4.195,1.813,6.292
		c0.142,0.992,0.057,0.567-0.057,1.417l-0.312,1.389c1.247,0.822,0.936,1.021,2.183,1.531c1.899-3.742,3.146-9.071,10.148-11.736
		c3.231-1.219,6.321-1.19,9.638-0.396c4.62,1.134,5.414,3.118,7.2,3.628c0.51-0.567,0.991-1.446,1.445-2.098l1.53-2.353
		c-19.134-25.653-61.908-13.635-62.021,3.316l2.551-0.68c-0.566,5.698-4.309,2.495-0.964,12.473
		c1.588-0.199,3.686-1.248,5.159-2.296C148.479,304.866,148.677,304.413,149.414,301.805z"/>
	<path d="M311.726,370.828c1.53,1.049,6.803,3.175,6.321-1.021c-1.162-10.658-10.658-4.309-10.998-49.096l-1.503-18.624
		c-0.057-0.114-0.113-0.255-0.17-0.34c-0.028-0.085-0.085-0.227-0.142-0.34l-1.162,3.402c-0.397,1.644-0.397,2.268-0.426,4.082
		l-0.822,26.079c0.086,0.057,0.256,0.283,0.284,0.17l1.19,0.851c0.425,0.567,0.255,0.425,0.198,1.445
		c-2.409,0.057-1.729-1.729-2.807,8.107c-1.757,16.101-9.155,16.469-9.467,26.164c2.948,0.907,4.394,0.425,6.463-0.822
		c-0.766,6.661,0.595,9.042,4.762,14.031l1.786,1.587c1.928-1.19,3.798-3.912,5.074-6.236
		C312.406,376.413,312.122,375.222,311.726,370.828z"/>
	<path d="M339.08,360.198c-5.953-2.976-8.76-4.45-13.04-8.872c-1.842-1.928-3.43-3.884-4.875-6.18
		c-2.239-3.6-2.069-4.932-4.422-6.52c1.162-0.907,1.842,1.729,5.386,0.68c-1.39-2.098-3.09-3.543-4.706-5.981
		c-7.313-11.027-6.265-20.41-9.893-24.492c-0.425,8.618-0.396,14.173,2.438,22.28c5.018,14.4,12.558,28.347,25.427,35.83
		C339.562,369.383,338.882,368.929,339.08,360.198z"/>
	<path d="M302.939,308.806l-2.013,3.657c-0.794,1.701-1.418,7.2-3.969,13.294c-3.798,9.185-5.924,9.185-8.674,13.578
		c2.579,0.652,4.252-0.68,6.095-1.729c-1.531,2.296-1.446,0.68-2.722,3.146c-2.013,3.883-3.826,7.058-6.859,10.176
		c-4.706,4.875-7.059,6.038-13.465,9.269c0,2.551-0.198,5.783,0.822,7.909c3.911-0.51,9.921-6.151,12.841-9.241
		c7.285-7.739,12.416-18.567,15.874-29.027C303.392,322.243,303.194,316.885,302.939,308.806z"/>
	<path d="M124.951,344.721l0.651-0.113c1.22-0.284,2.75,0,2.382-4.365c-0.341-4.11-2.58-6.945-4.451-10.091
		c-0.793-1.333-2.607-3.26-1.36-4.819c1.531-1.19,3.033,1.673,3.997,3.146c1.644,2.551,2.353,3.289,5.896,3.062
		c0,0,0.312-1.19,0.341-1.247l0.766-1.559c1.559,1.871,8.333,2.863,9.723-1.757c-9.043,1.616-13.663-12.019-17.632-7.313
		c-0.822,0.964-0.964,1.786-2.324,2.324c-2.013,0.794-2.324-0.368-4.082,0.567c-2.693,1.446-4.054,8.532-1.021,14.032
		c2.863,5.244,5.584,6.548,4.848,14.06C124.923,349.71,125.263,347.527,124.951,344.721z"/>
	<path d="M153.553,339.364c-0.426,1.077-1.105,1.616-2.154,2.126c-3.203,1.559-2.637,0.765-2.438,1.729
		c2.098,1.162,10.318-4.139,13.21-8.815c3.288-5.357,3.884-12.955,0-17.604c-3.94-4.705-11.452-5.754-15.364-0.51
		c-4.337,5.839-0.736,13.833,7.257,12.699c0.17-5.103-1.049-2.693-3.373-3.629c-1.417-0.566-3.033-2.551-2.409-4.28
		c0.34,0.567,1.36,7.059,6.944,2.268c0.369-4.592-1.105-3.543-3.288-3.855c2.324-5.641,17.434,4.365,3.005,18.567
		C154.233,338.74,154.432,338.882,153.553,339.364z"/>
	<path d="M158.23,279.156c-2.749-1.786-13.946,1.729-16.186,2.693c-6.265,2.665-10.177,5.811-14.4,10.687
		c-0.68,0.766-1.445,2.041-2.041,3.062c-2.041,3.458-5.442,10.432-6.122,14.627c-1.191,7.398,1.927,5.868,4.081,5.924
		c1.814-2.069,1.503-3.373,1.956-6.747c1.645-12.444,8.532-21.373,19.616-25.483c4.195-1.559,3.6-0.878,9.666-3.401
		c0.566-0.255,1.021-0.397,1.644-0.595c0.256-0.085,0.681-0.227,0.907-0.312L158.23,279.156z"/>
	<path d="M153.553,339.364c0.623-2.58,1.871-5.981-1.105-7.143c-1.077,0.793-1.049,0.907-1.56,2.183
		c-1.871-0.425,0.426,0.028-1.474-1.049c-1.36,1.445-1.729,3.628-5.953,4.989c-4.79,1.531-5.952-0.142-9.298-0.879l2.41-1.701
		c-1.616-1.049-1.758,0.085-3.997-1.927c-2.041-1.814-1.899-0.992-3.912-1.928c-1.134-0.51-2.126-1.786-2.862-2.948
		c-1.105-1.672-1.276-2.976-3.629-3.203c0.624,2.75,2.778,5.471,4.167,7.824c2.069,3.487,1.645,4.932,4.62,7.285
		c7.172,5.641,12.558,3.657,18.256,5.272c-0.567-3.912-1.814-2.154-2.807-3.855c1.247-0.454,2.098,0.227,4.082-0.794
		C151.993,340.725,152.476,339.931,153.553,339.364z"/>
	<path d="M286.356,287.178c2.381-3.033,4.337-4.195,7.938-2.353c2.438,1.275,4.507,3.742,4.988,7.058l4.848-0.17
		c-0.567-9.496-12.841-18.255-20.154-10.46c-9.27,9.921,4.394,16.526,6.633,9.865C291.883,287.376,288.737,286.923,286.356,287.178z
		"/>
	<path d="M306.283,291.798l4.847,0.028c0.482-4.677,5.812-8.787,9.524-7.682c1.248,0.397,2.778,2.126,3.288,3.175
		c-2.664-1.304-5.102,0.935-4.138,3.827c1.445,4.337,10.062,3.43,9.723-3.77c-0.085-2.495-1.673-4.621-3.062-6.095
		C319.124,273.628,307.106,281.792,306.283,291.798z"/>
	<path d="M310.96,298.46c0.652-0.199,2.495-0.425,2.041-3.26c-0.766-4.848-13.606-2.381-13.606-2.381
		c-1.389,0.539-2.154,1.729-1.983,3.345c0.17,1.814,1.076,2.268,2.919,2.551C302.428,298.999,309.174,299.027,310.96,298.46z"/>
	<path d="M408.983,338.145c0.255-2.807,3.628-8.277,2.636-19.389c-0.68-7.313-1.502-11.962-4.932-17.234
		c-2.75-4.28-7.002-7.994-11.991-9.411c-6.689-1.871-10.715-0.567-13.975,4.791c-0.425,0.68,0.368-0.51-0.312,0.454
		c-0.057,0.057-0.142,0.17-0.17,0.227c-0.057,0.057-0.114,0.17-0.199,0.227c-3.713-3.571,0.397-6.491-0.765-8.277
		c-1.588,0.567-1.19,1.927-1.503,3.94c-1.36,8.703-2.664,4.337-7.398,10.006c-0.057,0.028-0.142,0.142-0.198,0.227
		c-2.239-1.417-3.062-4.876-1.644-8.079c-1.616,0.142,0.113-0.142-1.248,0.482c-1.219,0.539,0.596,0.397-1.615,0.51
		c0.879-7.54,2.664-7.625,6.038-10.885c-4.649,1.247-5.5,6.094-6.747,8.192c-0.68,1.162-1.247,2.013-1.928,3.26
		c-5.839,10.573,2.269,22.592,9.78,21.969c2.834-0.255,0.963-0.794,3.373,0.765c4.507,2.892,8.9-2.75,7.058-5.499
		c-0.736-1.105-1.672-0.964-2.268-0.992l-0.992-0.057c0.681-1.333-0.453-0.964,1.588-1.077c2.863-0.142,2.835,4.139,3.288,5.216
		c0.681-7.767-6.406-7.965-5.471-2.636c1.275-0.17,3.543-2.126,3.43,1.332c-0.198,5.896-10.347,4.139-8.9-2.268
		c-1.645-0.028-1.786,0.312-3.062-0.567c4.252-12.529,20.154-6.01,15.363,5.357c-1.134,2.721-3.09,4.706-6.151,6.123
		c-10.63,4.819-25.682-6.917-24.094-21.827c1.021-0.765,1.474-1.559,2.692-2.324c1.418-0.907,2.382-0.964,2.183-3.118
		c-2.636-0.34-2.579,2.835-5.017,4.904c-2.693,2.325-7.768,2.438-7.768,1.389l-0.028-0.51c0-0.057,0.028-0.198,0.028-0.255
		c0.057-0.198,0.341-0.312,0.596-1.559c-4.876,0.198-9.581-1.474-10.233-6.095c2.863-0.765,2.211,0,3.997,0
		c1.53,0,0.681,0.227,1.36-0.397c-0.736-1.842-5.216-0.425-7.37-6.236c-1.332-3.6-0.227-9.128,3.714-9.071
		c1.445,2.693,2.636,6.945,9.212,8.164c9.496,1.757,19.871-9.298,36.482-6.463c1.786,0.312,5.272,1.105,6.859,2.268
		c-3.911,0.34-12.387-1.587-17.603,4.394c-0.879,1.021-2.75,3.685-2.268,4.706c2.579-3.6,3.968-7.682,12.16-8.391
		c14.599-1.247,26.192,9.185,29.764,23.216c1.645,6.548,1.446,4.536,0.482,8.788c0.085-0.085,0.198-0.085,0.255-0.255
		c0.028-0.17,0.198-0.17,0.255-0.255c1.701-1.984,0.964-2.325,4.819-2.41c-1.276,2.551-1.588,1.134-3.062,6.18
		c-1.275,4.422-0.907,8.079-1.418,9.581c-1.502,4.252-0.538,2.92-1.36,5.386c-0.425,1.219-0.68,2.211-1.049,3.288
		c-0.425,1.389-0.651,2.495-1.7,3.374C410.598,340.214,410.145,338.882,408.983,338.145z"/>
	<path d="M408.983,337.606c0.68,3.401,10.998,12.5,18.198,8.22c1.928-1.162,0.51-1.304,2.692-1.927
		c1.106-0.312,0.851,0.453,1.673-0.737c0.652-0.907,0.396-1.446,0.34-2.891l-0.396,0.708c-0.368,0.708-0.879,2.92-3.118,1.956
		c-2.211-0.936-1.644-2.381-1.871-4.847c-0.028,0-0.113,0.113-0.142,0.057c-0.227-0.907-0.028,0.17-0.481,0
		c-1.134-0.482,0.085,0.595-0.596-0.454c0.879-3.572,5.727-4.195,8.617-0.284c3.26,4.394,0.341,7.512-1.021,9.27
		c-4.592,6.009-13.181,4.734-19.445,0.454l-4.62-3.487c0.821,1.956,0.821,0.51,1.134,2.183c-3.231,4.819-4.706,7.342-8.788,11.197
		c-3.175,3.005-2.607,1.673-7.001,2.778c-2.608,0.68-4.564,1.984-6.804,3.118c0.085,0.057,0.199,0.17,0.228,0.085l0.935-0.028
		c1.588-0.482,7.796-4.762,11.878-1.673c-0.057,2.183-0.539,0.737-1.531,2.353c4.025-0.227,7.455-0.312,8.079,4.96l-6.095,0.397
		c0.057-0.057,0.766,0.113,1.134,1.021c0.454,1.105,0.227,0.652,0.085,1.814c-1.615-0.425-3.146-1.502-4.932-1.984
		c-5.103-1.304-12.898,1.559-18.143,2.834c-3.883,0.964-8.361,1.729-12.613,1.842c-5.244,0.142-8.816-0.793-13.408-1.332
		c0.566-4.507,1.332-5.839,1.219-11.338c11.679-0.51,11.877-6.917,17.263-7.852c0.397,2.409-0.368,2.268-0.425,4.195
		c1.673-1.049,0.766-2.041,3.43-2.495c1.021-0.17,1.928-0.028,2.892-0.142c1.389-0.17,1.389-0.567,2.636-0.652
		c0.624,2.211,0.567,3.742-0.736,5.953c-0.539,0.935-0.539,0.396-0.879,1.502c1.559,0.255,1.757-0.312,3.798,0.369
		c-0.765,2.126,0.341,0.425-1.474,1.729c-1.105,0.822-0.794,0.227-1.417,1.446l3.656-2.069c0.369-1.786-0.17,1.446,0-0.822
		l0.142-1.021c15.166-3.713,20.835-16.923,23.046-19.219c0.567-0.596,0.142-0.255,0.822-0.482l0.907-0.142
		c-10.63-14.797-6.435-15.959-8.476-21.685c-0.312,10.772-0.482,16.441-7.257,22.422c-10.29,9.099-20.154-1.502-14.344-4.762
		c0.766,1.134,0.17,1.077,0.794,2.409c-0.028-2.494,0.34-3.657,2.239-6.491c3.231,0.992,6.123,10.176,12.104-0.113
		c1.53-2.608,2.522-1.616,3.6-4.224c-0.879,0.51-0.255,0.113-0.879,0.567c-2.494,1.899-5.018,2.409-4.79-1.049
		c1.389,0.765,2.239,0.198,3.203-0.51c-2.75,0.68-2.126,0.482-4.224-0.737c1.134-1.729,2.324-1.077,3.939-5.698
		c2.126-6.066,1.701-10.233,4.508-14.825l2.692-4.422c0.879-1.304,0.992,0,0.822-1.304l0.057,1.701c0,0.113,0.085,0.284,0.085,0.369
		c0.028,0.085,0.085,0.255,0.142,0.34c0.255-1.36,0.369-1.502,0.851-2.636c0.085-0.199,0.425-0.907,0.539-1.077l1.02-1.134
		c4.225,5.839,1.928,2.155-0.538,11.764c-0.964,3.628-0.964,6.491-0.709,10.346C403.484,325.446,406.516,336.359,408.983,337.606z"
		/>
	<path d="M489.203,286.951c1.842,0.68,4.195,2.013,5.782,2.495c2.892,0.85,5.074,2.523,8.589,1.927
		c1.417,1.729-0.283,0.567,1.134,1.871c2.523-0.539,3.175-1.389,6.066-1.417l6.095-0.198c1.332,0.17,0.793,2.665,0.255,3.657
		c-0.794,1.474-1.417,1.304-2.069,2.522l2.977,0.028c-2.608,3.94-7.512,3.232-12.161,3.374c6.491,1.927,9.015-0.539,11.367-0.765
		c12.643-1.219,12.047-12.728,18.368-17.093c2.268-1.559,2.948-1.36,4.054,0.964c1.19-0.879,3.515-4.592,8.107-5.868
		c3.486-0.964,3.854,0.964,4.989,0.425c2.494-1.191,2.862-1.333,6.122-1.049l-0.992,0.935c-0.312,0.199-0.935,0.454-1.304,0.652
		c-1.956,1.077-3.912,4.054-4.961,6.009c-2.607,4.819-3.741,8.873-8.702,13.096c-8.674,7.342-12.812,5.471-15.023,6.718l4.025,0.085
		c-0.227,5.13-8.221,3.77-11.537,3.77l2.154,1.021c0.766,0.396,0.425,0.085,0.964,0.595c-9.383,6.038-23.697-4.139-31.011-10.29
		c-4.337-3.657-14.287-13.776-18.028-16.101c-2.438-1.531-5.159-2.551-7.427-3.94c2.919,0.028,8.617,1.814,11.594,2.636
		C482.626,284.145,485.546,285.704,489.203,286.951z"/>
	<path d="M460.998,301.805c-1.105,0.17-0.454,0.482-1.899,1.502c-4.394-1.077-5.584-13.89-13.776-14.542
		c0.17,3.827,4.422,2.551,3.657,8.759c-0.199,1.729-0.454,1.757-1.305,2.721c-0.793-0.624-3.175-4.649-4.507-6.038
		c-1.729-1.786-4.224-3.543-7.313-3.6c2.239,1.474,5.188,1.474,6.321,5.131c1.105,3.458-1.445,4.195-1.786,6.292
		c-0.142,0.992-0.057,0.567,0.057,1.417l0.312,1.389c-1.247,0.822-0.936,1.021-2.183,1.531c-1.928-3.742-3.146-9.071-10.177-11.736
		c-3.203-1.219-6.321-1.19-9.609-0.396c-4.648,1.134-5.414,3.118-7.2,3.628c-0.538-0.567-0.992-1.446-1.445-2.098l-1.56-2.353
		c19.134-25.653,61.938-13.635,62.051,3.316l-2.551-0.68c0.566,5.698,4.28,2.495,0.964,12.473c-1.588-0.199-3.686-1.248-5.159-2.296
		C461.934,304.866,461.736,304.413,460.998,301.805z"/>
	<path d="M485.433,344.721l-0.624-0.113c-1.219-0.284-2.749,0-2.381-4.365c0.34-4.11,2.58-6.945,4.45-10.091
		c0.766-1.333,2.58-3.26,1.361-4.819c-1.531-1.19-3.062,1.673-3.997,3.146c-1.645,2.551-2.353,3.289-5.896,3.062
		c0,0-0.34-1.19-0.34-1.247l-0.766-1.559c-1.559,1.871-8.362,2.863-9.723-1.757c9.043,1.616,13.663-12.019,17.632-7.313
		c0.821,0.964,0.964,1.786,2.324,2.324c2.013,0.794,2.324-0.368,4.082,0.567c2.692,1.446,4.054,8.532,1.021,14.032
		c-2.863,5.244-5.585,6.548-4.848,14.06C485.461,349.71,485.15,347.527,485.433,344.721z"/>
	<path d="M456.86,339.364c0.425,1.077,1.105,1.616,2.154,2.126c3.175,1.559,2.637,0.765,2.438,1.729
		c-2.098,1.162-10.346-4.139-13.237-8.815c-3.288-5.357-3.855-12.955,0.028-17.604c3.912-4.705,11.452-5.754,15.363-0.51
		c4.337,5.839,0.737,13.833-7.256,12.699c-0.171-5.103,1.02-2.693,3.345-3.629c1.445-0.566,3.062-2.551,2.438-4.28
		c-0.368,0.567-1.36,7.059-6.945,2.268c-0.368-4.592,1.105-3.543,3.288-3.855c-2.353-5.641-17.461,4.365-3.004,18.567
		C456.151,338.74,455.981,338.882,456.86,339.364z"/>
	<path d="M452.155,279.156c2.777-1.786,13.975,1.729,16.186,2.693c6.293,2.665,10.204,5.811,14.428,10.687
		c0.681,0.766,1.418,2.041,2.041,3.062c2.041,3.458,5.443,10.432,6.095,14.627c1.219,7.398-1.899,5.868-4.054,5.924
		c-1.813-2.069-1.502-3.373-1.956-6.747c-1.672-12.444-8.561-21.373-19.615-25.483c-4.195-1.559-3.6-0.878-9.666-3.401
		c-0.596-0.255-1.021-0.397-1.645-0.595c-0.255-0.085-0.68-0.227-0.936-0.312L452.155,279.156z"/>
	<path d="M456.86,339.364c-0.624-2.58-1.871-5.981,1.105-7.143c1.077,0.793,1.021,0.907,1.559,2.183
		c1.871-0.425-0.425,0.028,1.475-1.049c1.36,1.445,1.729,3.628,5.953,4.989c4.79,1.531,5.952-0.142,9.297-0.879l-2.409-1.701
		c1.587-1.049,1.729,0.085,3.997-1.927c2.013-1.814,1.871-0.992,3.911-1.928c1.135-0.51,2.126-1.786,2.863-2.948
		c1.077-1.672,1.275-2.976,3.601-3.203c-0.596,2.75-2.778,5.471-4.139,7.824c-2.069,3.487-1.645,4.932-4.621,7.285
		c-7.171,5.641-12.558,3.657-18.255,5.272c0.539-3.912,1.814-2.154,2.807-3.855c-1.247-0.454-2.098,0.227-4.11-0.794
		C458.418,340.725,457.937,339.931,456.86,339.364z"/>
	<path d="M60.322,206.589l0.651,1.247c-2.721,2.948-4.762,6.066-6.094,9.411c-1.729,4.309-2.58,8.986-2.58,14.032
		c0,6.123,1.247,11.792,3.799,16.979c1.105-1.417,1.757-2.608,1.984-3.572c0.198-0.992,0.312-3.628,0.312-7.994v-19.474
		L70.157,201.6c2.722,1.701,4.876,2.834,6.435,3.345c1.588,0.51,3.43,0.765,5.556,0.765h0.624l0.425,1.56l-4.563,6.916
		c-3.033-0.51-6.435-2.296-10.262-5.357l0.284,49.776l1.049,0.028c2.607,0,5.017-0.708,7.171-2.126
		c2.154-1.445,4.423-3.77,6.719-6.973l0.821,1.304c-1.7,3.713-3.373,6.604-4.988,8.674c-1.645,2.069-3.601,3.713-5.896,4.961
		c-2.324,1.219-4.592,1.842-6.859,1.842c-3.373,0-6.52-1.304-9.496-3.883c-2.977-2.58-5.301-6.293-6.974-11.112
		c-1.672-4.819-2.522-9.78-2.522-14.911c0-6.292,1.19-12.132,3.571-17.518C53.121,214.668,56.155,210.586,60.322,206.589z
		 M67.153,208.602l-3.203,4.365v19.871c0,2.466-0.085,4.139-0.255,4.932c-0.17,1.077-0.596,2.239-1.247,3.458
		c-1.361,2.466-3.231,5.272-5.642,8.447c1.475,2.579,3.062,4.563,4.734,5.924c1.672,1.389,3.628,2.324,5.896,2.778L67.153,208.602z
		 M98.163,203.839l0.284,1.049c-1.333,1.361-2.239,2.75-2.722,4.28c-0.453,1.502-0.709,3.912-0.709,7.172v14.173l8.447-10.715
		c1.786,1.871,2.977,3.657,3.516,5.414c0.538,1.729,0.822,4.677,0.822,8.844v19.814c0,3.77-0.256,6.548-0.737,8.305
		c-0.794,2.834-2.239,5.528-4.365,8.022c-2.778,3.345-6.321,6.18-10.602,8.618l-0.397-1.701c3.516-2.296,5.953-4.394,7.313-6.265
		c1.39-1.899,2.296-3.912,2.722-6.038c0.312-1.587,0.453-5.754,0.453-12.472v-18.284c0-2.041-0.113-3.43-0.368-4.224
		c-0.368-1.077-1.077-2.154-2.069-3.175l-4.734,6.01v24.264l1.956,3.175l-4.79,6.208l-4.961-6.208l2.183-3.43v-39.685
		c0-3.6-0.198-6.066-0.595-7.398c-0.397-1.361-1.191-2.551-2.382-3.628l0.284-1.077c0.964,0.454,1.757,0.936,2.324,1.474
		c0.595,0.539,1.36,1.474,2.296,2.834c1.134-1.701,2.211-2.948,3.26-3.742C95.613,204.662,96.803,204.123,98.163,203.839z
		 M131.273,219.798l5.074,6.492l-2.24,3.146v22.961c0,2.665,0.228,4.535,0.709,5.698c0.283,0.793,0.624,1.162,0.964,1.162
		c0.255,0,0.766-0.454,1.502-1.417l0.652,1.333l-5.868,7.143c-1.445-1.616-2.409-3.09-2.834-4.365
		c-0.454-1.304-0.681-3.345-0.737-6.18c-2.807,2.948-5.697,6.463-8.589,10.545c-1.786-2.211-2.977-4.139-3.515-5.839
		c-0.567-1.644-0.851-3.883-0.851-6.604v-21.572c0-1.502-0.085-2.495-0.255-2.977c-0.284-0.822-0.681-1.219-1.19-1.219
		c-0.397,0-0.964,0.51-1.701,1.531l-0.652-1.361l6.406-8.476l5.074,6.492l-2.069,2.891v23.131c0,1.729,0.142,2.976,0.426,3.798
		c0.283,0.765,0.935,1.786,2.012,3.005l4.904-5.896v-23.783l-1.956-3.146L131.273,219.798z M140.428,205.001l18.624,20.353
		c0.312-1.077,0.624-1.899,0.992-2.466c0.368-0.539,0.907-1.077,1.644-1.559v1.786c-0.368,0.793-0.623,1.502-0.736,2.126
		c-0.113,0.652-0.17,1.956-0.17,3.94v29.367c-2.325,1.389-4.054,2.58-5.188,3.628c-1.134,1.021-2.382,2.41-3.686,4.139
		c-2.154-2.268-4.054-3.912-5.726-4.96c-1.645-1.021-3.43-1.701-5.357-2.013v-0.794c0.68-0.907,1.077-1.814,1.275-2.721
		c0.198-0.907,0.312-2.834,0.312-5.698v-22.904c2.495-1.105,4.252-2.324,5.272-3.685l-7.257-7.937V205.001z M155.197,231.732
		l-5.641-6.151c-0.51,0.652-1.021,1.219-1.559,1.701v26.901l7.199,5.074V231.732z M181.304,219.798l4.11,7.909l-4.11,5.839
		l-3.43-6.86l-2.722,3.912v25.37l3.146,3.571l2.807-3.486l0.68,1.332l-7.001,8.929c-1.503-2.126-2.778-3.657-3.827-4.592
		c-1.021-0.935-2.154-1.672-3.373-2.183v-0.907c0.822-0.907,1.332-1.814,1.588-2.721c0.255-0.935,0.368-2.693,0.368-5.301v-17.886
		c0-2.24-0.142-3.742-0.454-4.479c-0.312-0.737-0.651-1.105-1.021-1.105c-0.425,0-0.963,0.624-1.672,1.871l-0.652-1.36l5.698-7.852
		c1.53,1.899,2.607,3.543,3.175,4.96c0.368,0.879,0.538,2.069,0.538,3.628L181.304,219.798z M195.618,204.888h3.487l-3.771,9.383
		h-1.162L195.618,204.888z M193.464,219.798l4.904,6.378l-2.183,3.374v23.782c0,2.495,0.142,4.139,0.396,4.904
		c0.256,0.737,0.539,1.105,0.822,1.105c0.17,0,0.369-0.057,0.539-0.198c0.227-0.227,0.68-0.851,1.417-1.843l0.652,1.332
		l-5.868,7.682c-1.474-1.672-2.409-3.231-2.835-4.706c-0.425-1.445-0.623-4.025-0.623-7.71v-24.35l-2.069-3.374L193.464,219.798z
		 M223.597,221.669l1.021,0.624c-1.021,2.466-1.645,4.337-1.899,5.612c-0.283,1.304-0.396,3.062-0.396,5.272v18.596
		c0,3.089,0.113,5.017,0.396,5.782c0.283,0.794,0.596,1.163,0.964,1.163c0.227,0,0.425-0.085,0.624-0.255
		c0.142-0.142,0.538-0.652,1.162-1.531l0.651,1.361l-5.867,8.022c-1.361-1.729-2.296-3.288-2.778-4.677
		c-0.453-1.389-0.709-3.288-0.766-5.754l-8.333,10.432c-3.118-4.082-4.678-8.107-4.678-12.076c0-2.636,0.34-5.131,0.992-7.483
		c0.907-3.033,2.438-6.604,4.62-10.715l-3.288-11.14l0.369-1.248c0.708,0.057,1.247,0.085,1.587,0.085
		c2.183,0,4.082-1.304,5.727-3.94c1.332,1.219,2.777,2.183,4.365,2.92c1.587,0.737,2.806,1.105,3.628,1.105
		c0.396,0,0.681-0.114,0.879-0.312S223.115,222.69,223.597,221.669z M216.708,229.918l-9.382-4.592l3.316,11.225l6.065,4.592
		V229.918z M216.708,243.014l-6.661-5.017c-1.021,3.543-1.53,6.633-1.53,9.326c0,4.706,1.332,8.589,4.024,11.65l4.167-5.216V243.014
		z M283.805,201.146l1.049,1.162c-0.369,2.835-0.907,5.046-1.588,6.69c-0.651,1.616-1.644,2.919-2.919,3.855
		c-1.276,0.936-2.778,1.417-4.451,1.417c-0.907,0-1.984-0.085-3.26-0.255v43.994c2.778-1.332,4.989-3.061,6.604-5.159
		c1.645-2.126,3.175-5.159,4.593-9.128l1.021,0.766c-0.794,3.912-1.729,7.03-2.778,9.411c-1.7,3.827-3.884,6.831-6.576,9.071
		c-2.665,2.239-5.783,3.345-9.298,3.345c-3.43,0-6.633-1.049-9.609-3.146c-1.729-1.219-3.345-2.919-4.762-5.131
		c-1.446-2.211-2.637-4.875-3.544-8.022c-0.936-3.146-1.389-6.718-1.389-10.687c0-4.025,0.51-7.852,1.502-11.509
		s2.467-7.171,4.423-10.517c1.247-2.098,2.976-4.394,5.243-6.917l-3.458-0.312c-1.275-0.113-2.664,0.312-4.224,1.304
		c-1.53,0.964-2.749,2.268-3.628,3.912c-0.851,1.616-1.616,4.053-2.239,7.285l-1.049-0.935c0.623-4.139,1.417-7.342,2.409-9.638
		c1.304-3.061,3.033-5.414,5.188-7.086s4.62-2.523,7.37-2.523c1.899,0,5.272,0.652,10.147,1.928
		c4.848,1.275,8.164,1.928,9.979,1.928c1.247,0,2.154-0.312,2.806-0.907C282.019,204.747,282.841,203.329,283.805,201.146z
		 M261.127,210.812l-1.445-0.198c-2.409,3.316-4.224,6.661-5.357,10.006c-1.56,4.507-2.324,9.127-2.324,13.89
		c0,8.135,2.098,14.769,6.265,19.928c1.332-1.786,2.154-3.232,2.438-4.309c0.283-1.105,0.425-3.373,0.425-6.774V210.812z
		 M271.389,213.591c-1.729-0.369-3.26-0.766-4.592-1.219v26.05c0,3.062-0.057,4.989-0.228,5.811
		c-0.142,0.822-0.51,1.758-1.077,2.807c-1.02,1.786-3.061,4.648-6.122,8.532c1.53,1.19,2.777,1.984,3.713,2.381
		c1.645,0.708,3.231,1.049,4.734,1.049c0.821,0,1.984-0.142,3.571-0.454V213.591z M307.446,221.669l1.021,0.624
		c-0.992,2.466-1.616,4.337-1.899,5.612c-0.255,1.304-0.396,3.062-0.396,5.272v18.596c0,3.089,0.142,5.017,0.396,5.782
		c0.283,0.794,0.624,1.163,0.992,1.163c0.198,0,0.396-0.085,0.624-0.255c0.113-0.142,0.51-0.652,1.162-1.531l0.623,1.361
		l-5.839,8.022c-1.39-1.729-2.324-3.288-2.778-4.677c-0.481-1.389-0.737-3.288-0.794-5.754l-8.333,10.432
		c-3.118-4.082-4.678-8.107-4.678-12.076c0-2.636,0.341-5.131,1.021-7.483c0.879-3.033,2.41-6.604,4.621-10.715l-3.316-11.14
		l0.396-1.248c0.709,0.057,1.247,0.085,1.587,0.085c2.154,0,4.054-1.304,5.698-3.94c1.332,1.219,2.806,2.183,4.394,2.92
		c1.559,0.737,2.777,1.105,3.628,1.105c0.368,0,0.681-0.114,0.851-0.312C306.652,223.313,306.991,222.69,307.446,221.669z
		 M300.557,229.918l-9.382-4.592l3.316,11.225l6.065,4.592V229.918z M300.557,243.014l-6.633-5.017
		c-1.049,3.543-1.559,6.633-1.559,9.326c0,4.706,1.332,8.589,4.025,11.65l4.166-5.216V243.014z M312.236,224.674l7.683-15.052h0.793
		l-0.283,12.047h5.499v4.932h-5.499v29.282l3.09,3.657l1.729-2.239l0.68,1.332l-6.037,7.682c-2.069-3.316-4.395-5.584-6.974-6.775
		v-0.907c0.709-0.793,1.19-1.587,1.445-2.438c0.312-1.077,0.454-2.608,0.454-4.649v-24.945h-2.58V224.674z M327.968,224.674
		l7.683-15.052h0.793l-0.283,12.047h5.499v4.932h-5.499v29.282l3.09,3.657l1.729-2.239l0.68,1.332l-6.038,7.682
		c-2.04-3.316-4.365-5.584-6.973-6.775v-0.907c0.737-0.793,1.219-1.587,1.445-2.438c0.312-1.077,0.454-2.608,0.454-4.649v-24.945
		h-2.58V224.674z M364.422,226.148v32.684c-2.75,1.757-4.734,3.203-5.981,4.337c-0.936,0.851-1.814,1.899-2.693,3.146
		c-2.636-2.58-4.818-4.365-6.548-5.357c-1.332-0.765-2.806-1.19-4.45-1.248l-0.283-0.878c0.68-0.936,1.105-1.786,1.304-2.551
		c0.255-0.992,0.368-2.665,0.368-5.017V227.31c3.374-1.786,6.265-4.28,8.675-7.512C357.392,222.52,360.595,224.646,364.422,226.148z
		 M351.751,254.636l7.058,4.621v-27.751c-2.211-1.644-3.77-2.721-4.705-3.26c-0.652-0.369-1.417-0.68-2.353-0.936V254.636z
		 M389.565,226.148v32.684c-2.749,1.757-4.762,3.203-5.98,4.337c-0.936,0.851-1.843,1.899-2.693,3.146
		c-2.636-2.58-4.847-4.365-6.576-5.357c-1.304-0.765-2.778-1.19-4.45-1.248l-0.255-0.878c0.68-0.936,1.105-1.786,1.275-2.551
		c0.255-0.992,0.396-2.665,0.396-5.017V227.31c3.373-1.786,6.265-4.28,8.646-7.512C382.507,222.52,385.71,224.646,389.565,226.148z
		 M376.865,254.636l7.087,4.621v-27.751c-2.211-1.644-3.798-2.721-4.705-3.26c-0.652-0.369-1.446-0.68-2.382-0.936V254.636z
		 M424.828,201.146l12.33,6.576l0.936-2.579c0.312-0.907,0.539-1.474,0.681-1.701c0.142-0.227,0.312-0.34,0.481-0.34
		s0.341,0.113,0.454,0.312c0.113,0.199,0.17,0.397,0.17,0.652c0,0.425-0.227,1.219-0.681,2.438l-5.924,16.129l4.705-0.538
		c1.418-0.085,3.09,0.227,4.989,0.963c1.871,0.709,3.515,1.843,4.875,3.374c1.361,1.531,2.438,3.316,3.204,5.414
		c0.765,2.069,1.162,4.365,1.162,6.86c0,4.621-1.22,9.127-3.629,13.578c-2.409,4.451-6.746,9.1-12.926,14.032
		c-2.183-1.275-4.705-2.608-7.54-3.997c-5.159,3.741-9.383,5.612-12.699,5.612c-2.353,0-4.167-0.822-5.414-2.466
		c-1.275-1.645-1.928-3.543-1.928-5.698c0-2.296,0.766-4.394,2.296-6.293c1.56-1.928,3.827-2.863,6.832-2.863
		c1.19,0,2.664,0.227,4.394,0.737l2.268-6.321l-4.025,0.482c-0.964,0.028-2.211-0.17-3.827-0.624
		c-1.615-0.425-2.919-1.162-3.968-2.183c-1.021-1.021-1.786-2.239-2.297-3.713c-0.51-1.474-0.765-3.033-0.765-4.648
		c0-2.58,0.566-4.847,1.729-6.832c0.709-1.276,1.928-2.41,3.601-3.43l-0.028-0.51c0-2.721,0.766-5.868,2.268-9.383
		C418.053,210.671,420.803,206.334,424.828,201.146z M434.693,214.696c-2.863-2.268-5.103-3.771-6.718-4.536
		c-1.588-0.765-3.005-1.162-4.224-1.162c-1.701,0-3.118,0.793-4.167,2.324c-1.077,1.531-1.645,3.345-1.645,5.414
		c0,2.013,0.482,3.685,1.39,5.018c0.935,1.304,2.324,1.956,4.166,1.956c1.248,0,3.997-0.312,8.306-0.935L434.693,214.696z
		 M428.939,230.797c-2.382,0.539-4.678,0.794-6.917,0.794c-2.466,0-4.224-0.454-5.272-1.361c-1.049-0.936-1.814-2.353-2.324-4.309
		c-1.304,1.332-1.956,2.976-1.956,4.932c0,1.786,0.511,3.26,1.531,4.394c1.332,1.502,3.656,2.24,6.916,2.24
		c1.53,0,3.486-0.199,5.868-0.681L428.939,230.797z M428.258,236.636c4.337-0.68,7.342-1.049,9.043-1.049
		c2.324,0,4.109,0.851,5.329,2.523c1.219,1.701,1.842,3.713,1.842,6.038c0,2.041-0.595,4.025-1.785,5.981
		c-1.191,1.899-3.771,4.309-7.683,7.172l5.528,2.296c2.381-2.353,4.224-4.875,5.527-7.625c1.304-2.721,1.956-5.726,1.956-9.014
		c0-2.154-0.426-4.252-1.22-6.35c-0.821-2.069-2.068-3.713-3.77-4.96c-1.673-1.219-3.628-1.843-5.812-1.843
		c-1.757,0-4.024,0.255-6.803,0.794L428.258,236.636z M422.872,251.773c1.7,0.567,3.118,1.134,4.195,1.644
		c1.105,0.482,3.033,1.502,5.811,3.004c4.423-3.231,6.634-6.321,6.662-9.326c0-0.907-0.256-1.729-0.766-2.495
		c-0.511-0.766-1.162-1.134-1.984-1.134c-0.964,0-2.183,0.142-3.6,0.397c-3.997,0.652-6.605,0.992-7.853,0.992L422.872,251.773z
		 M426.189,261.298c-4.563-2.41-8.277-3.628-11.169-3.628c-1.502,0-2.692,0.51-3.571,1.559c-0.595,0.708-0.907,1.559-0.907,2.579
		c0,1.077,0.312,1.928,0.907,2.58c0.964,1.049,2.324,1.587,4.139,1.587C418.365,265.975,421.908,264.416,426.189,261.298z
		 M455.641,224.674l7.682-15.052h0.794l-0.283,12.047h5.499v4.932h-5.499v29.282l3.089,3.657l1.729-2.239l0.681,1.332l-6.038,7.682
		c-2.041-3.316-4.365-5.584-6.974-6.775v-0.907c0.737-0.793,1.191-1.587,1.446-2.438c0.312-1.077,0.453-2.608,0.453-4.649v-24.945
		h-2.579V224.674z M491.102,219.798l5.074,6.492l-2.239,3.146v22.961c0,2.665,0.227,4.535,0.681,5.698
		c0.312,0.793,0.623,1.162,0.992,1.162c0.255,0,0.765-0.454,1.502-1.417l0.624,1.333l-5.84,7.143
		c-1.445-1.616-2.409-3.09-2.835-4.365c-0.453-1.304-0.708-3.345-0.736-6.18c-2.807,2.948-5.698,6.463-8.617,10.545
		c-1.758-2.211-2.948-4.139-3.487-5.839c-0.566-1.644-0.851-3.883-0.851-6.604v-21.572c0-1.502-0.085-2.495-0.255-2.977
		c-0.283-0.822-0.68-1.219-1.19-1.219c-0.396,0-0.964,0.51-1.729,1.531l-0.623-1.361l6.406-8.476l5.074,6.492l-2.069,2.891v23.131
		c0,1.729,0.142,2.976,0.425,3.798c0.255,0.765,0.936,1.786,2.013,3.005l4.904-5.896v-23.783l-1.956-3.146L491.102,219.798z
		 M500.258,205.001l18.624,20.353c0.283-1.077,0.623-1.899,0.991-2.466c0.341-0.539,0.907-1.077,1.645-1.559v1.786
		c-0.368,0.793-0.624,1.502-0.737,2.126c-0.113,0.652-0.17,1.956-0.17,3.94v29.367c-2.324,1.389-4.054,2.58-5.188,3.628
		c-1.134,1.021-2.381,2.41-3.685,4.139c-2.154-2.268-4.054-3.912-5.727-4.96c-1.644-1.021-3.43-1.701-5.357-2.013v-0.794
		c0.652-0.907,1.077-1.814,1.276-2.721c0.198-0.907,0.283-2.834,0.283-5.698v-22.904c2.522-1.105,4.28-2.324,5.301-3.685
		l-7.257-7.937V205.001z M514.998,231.732l-5.612-6.151c-0.511,0.652-1.021,1.219-1.56,1.701v26.901l7.172,5.074V231.732z
		 M533.253,204.888h3.458l-3.741,9.383h-1.19L533.253,204.888z M531.099,219.798l4.904,6.378l-2.211,3.374v23.782
		c0,2.495,0.142,4.139,0.396,4.904c0.283,0.737,0.538,1.105,0.822,1.105c0.198,0,0.368-0.057,0.538-0.198
		c0.227-0.227,0.709-0.851,1.418-1.843l0.651,1.332l-5.867,7.682c-1.446-1.672-2.382-3.231-2.807-4.706
		c-0.425-1.445-0.624-4.025-0.624-7.71v-24.35l-2.098-3.374L531.099,219.798z M561.543,226.148v32.684
		c-2.75,1.757-4.734,3.203-5.953,4.337c-0.936,0.851-1.842,1.899-2.692,3.146c-2.665-2.58-4.848-4.365-6.577-5.357
		c-1.304-0.765-2.777-1.19-4.45-1.248l-0.283-0.878c0.709-0.936,1.134-1.786,1.304-2.551c0.256-0.992,0.369-2.665,0.369-5.017
		V227.31c3.373-1.786,6.264-4.28,8.674-7.512C554.513,222.52,557.716,224.646,561.543,226.148z M548.872,254.636l7.087,4.621
		v-27.751c-2.24-1.644-3.799-2.721-4.734-3.26c-0.623-0.369-1.417-0.68-2.353-0.936V254.636z"/>
	<g>
		<path d="M156.245,414.113H146.07v-0.255c0.936-0.057,1.559-0.17,1.928-0.34c0.623-0.312,0.963-0.737,0.963-1.275
			c0-0.34-0.142-0.766-0.425-1.304l-0.283-0.482l-1.475-2.778h-6.803l-0.822,1.616l-0.368,0.737
			c-0.482,0.851-0.709,1.531-0.709,2.041c0,0.284,0.085,0.539,0.255,0.794c0.171,0.255,0.397,0.454,0.681,0.624
			c0.425,0.198,0.936,0.34,1.56,0.369v0.255h-6.917v-0.255c0.538-0.028,1.021-0.113,1.445-0.312c0.397-0.17,0.794-0.454,1.19-0.85
			c0.341-0.34,0.652-0.737,0.964-1.248c0.312-0.51,0.737-1.275,1.248-2.268l5.641-11.055h0.879l6.746,12.302
			c0.511,0.936,0.907,1.616,1.219,2.013c0.283,0.397,0.624,0.708,0.964,0.907c0.255,0.142,0.539,0.227,0.851,0.312
			c0.312,0.085,0.794,0.142,1.445,0.199V414.113z M146.523,407.197l-3.231-6.066l-3.062,6.066H146.523z M156.444,398.098
			l4.479-0.454v13.096v0.879c0,0.538,0.057,0.935,0.142,1.162c0.085,0.255,0.227,0.454,0.481,0.624
			c0.284,0.198,0.822,0.369,1.588,0.482v0.227h-6.832v-0.227c0.624-0.057,1.049-0.142,1.333-0.284
			c0.255-0.085,0.453-0.283,0.623-0.567c0.113-0.17,0.198-0.454,0.255-0.822c0.028-0.34,0.058-0.879,0.058-1.559v-9.185
			c0-0.793-0.029-1.36-0.086-1.672c-0.028-0.34-0.142-0.595-0.312-0.793c-0.198-0.227-0.396-0.397-0.651-0.482
			c-0.256-0.085-0.596-0.142-1.078-0.17V398.098z M168.576,409.379l2.807-2.324c0.566-0.482,0.964-0.851,1.162-1.105
			c0.198-0.227,0.283-0.482,0.283-0.709c0-0.34-0.227-0.567-0.681-0.68c-0.198-0.085-0.566-0.113-1.105-0.142v-0.255h5.925v0.255
			c-0.737,0-1.36,0.113-1.814,0.283c-0.453,0.199-1.049,0.596-1.814,1.219l-0.595,0.51l-1.701,1.389l3.997,3.402
			c0.312,0.255,0.539,0.454,0.652,0.51l0.68,0.539c0.567,0.425,0.964,0.708,1.219,0.878c0.228,0.142,0.539,0.312,0.879,0.425
			c0.369,0.17,0.879,0.255,1.503,0.312v0.227h-7.229v-0.227c0.425-0.028,0.737-0.085,0.907-0.17
			c0.255-0.113,0.368-0.283,0.368-0.481c0-0.227-0.142-0.482-0.453-0.709l-0.312-0.283l-3.741-3.146l-0.936,0.793v0.851v0.879
			c0,0.538,0.057,0.935,0.142,1.162c0.085,0.255,0.227,0.454,0.482,0.624c0.283,0.198,0.793,0.369,1.587,0.482v0.227h-6.831v-0.227
			c0.623-0.057,1.049-0.142,1.332-0.284c0.255-0.085,0.481-0.283,0.651-0.567c0.086-0.17,0.171-0.454,0.228-0.822
			c0.057-0.34,0.057-0.879,0.057-1.559v-9.185c0-0.793-0.028-1.36-0.057-1.672c-0.057-0.34-0.17-0.595-0.341-0.793
			c-0.17-0.227-0.396-0.397-0.651-0.482c-0.256-0.085-0.596-0.142-1.049-0.17v-0.255l4.45-0.454V409.379z M184.167,403.994
			c0.198,0.539,0.312,1.077,0.368,1.616c0.624-0.51,1.36-0.907,2.183-1.19c0.794-0.284,1.645-0.425,2.522-0.425
			c0.964,0,1.758,0.199,2.41,0.567c0.396,0.227,0.851,0.624,1.332,1.162c0.794-0.595,1.588-1.021,2.381-1.304
			c0.794-0.284,1.645-0.425,2.552-0.425c1.247,0,2.239,0.255,3.033,0.766c0.765,0.51,1.162,1.19,1.162,2.012v3.969v0.879
			c0,0.538,0.057,0.935,0.142,1.162c0.085,0.255,0.227,0.454,0.453,0.624c0.283,0.198,0.822,0.369,1.616,0.482v0.227h-6.832v-0.227
			c0.624-0.057,1.049-0.17,1.304-0.284c0.256-0.085,0.482-0.283,0.652-0.567c0.113-0.17,0.198-0.454,0.255-0.822
			c0.028-0.34,0.057-0.879,0.057-1.559v-2.24c0-0.85-0.028-1.474-0.113-1.871c-0.057-0.397-0.198-0.737-0.396-1.021
			c-0.482-0.68-1.332-0.992-2.494-0.992c-1.276,0-2.212,0.34-2.778,1.077c-0.511,0.595-0.766,1.559-0.766,2.863v2.268l0.028,0.879
			c0,0.538,0.028,0.935,0.113,1.162c0.085,0.255,0.256,0.454,0.482,0.624c0.283,0.198,0.822,0.369,1.587,0.482v0.227h-6.831v-0.227
			c0.623-0.057,1.077-0.17,1.332-0.284c0.255-0.085,0.482-0.283,0.652-0.567c0.113-0.17,0.198-0.454,0.227-0.822
			c0.057-0.34,0.085-0.879,0.085-1.559v-2.154c0-0.936-0.057-1.587-0.113-2.013c-0.085-0.425-0.227-0.766-0.454-1.049
			c-0.227-0.284-0.538-0.482-0.935-0.652c-0.426-0.17-0.879-0.255-1.39-0.255c-0.595,0-1.134,0.113-1.644,0.34
			c-0.511,0.198-0.907,0.482-1.219,0.85c-0.284,0.312-0.482,0.709-0.596,1.134c-0.113,0.454-0.17,1.049-0.17,1.758v2.126
			l0.028,0.879c0,0.538,0.028,0.935,0.113,1.162c0.085,0.255,0.227,0.454,0.481,0.624c0.284,0.198,0.822,0.369,1.588,0.482v0.227
			h-6.831v-0.227c0.623-0.057,1.048-0.142,1.332-0.284c0.255-0.085,0.481-0.283,0.651-0.567c0.113-0.17,0.171-0.454,0.228-0.822
			c0.057-0.34,0.057-0.879,0.057-1.559v-2.892c0-0.793,0-1.36-0.057-1.672c-0.057-0.34-0.171-0.595-0.341-0.793
			c-0.17-0.227-0.396-0.369-0.651-0.482c-0.228-0.085-0.596-0.142-1.049-0.17v-0.255L184.167,403.994z M218.268,412.979l0.255,0.113
			c-0.368,0.822-1.219,1.248-2.551,1.248c-0.737,0-1.333-0.142-1.814-0.425c-0.34-0.17-0.652-0.482-0.992-0.936
			c-0.681,0.482-1.219,0.794-1.559,0.936c-0.681,0.283-1.446,0.425-2.325,0.425c-1.134,0-2.041-0.199-2.721-0.624
			c-0.652-0.425-0.992-0.963-0.992-1.672c0-0.652,0.283-1.19,0.822-1.644c0.312-0.227,0.651-0.425,1.049-0.567
			c0.396-0.142,0.992-0.283,1.757-0.454c0.879-0.17,1.56-0.312,1.956-0.425c0.426-0.113,0.794-0.255,1.077-0.425
			c0.341-0.17,0.567-0.369,0.681-0.624c0.113-0.255,0.198-0.567,0.198-1.02c0-0.907-0.227-1.559-0.681-1.984
			c-0.198-0.199-0.481-0.34-0.793-0.482c-0.312-0.113-0.652-0.17-1.021-0.17c-0.397,0-0.766,0.085-1.105,0.255
			c-0.341,0.17-0.567,0.397-0.737,0.68l-0.396,0.681c-0.199,0.368-0.567,0.539-1.106,0.539c-0.34,0-0.623-0.085-0.878-0.255
			c-0.228-0.17-0.341-0.397-0.341-0.652c0-0.397,0.369-0.737,1.105-1.021c0.397-0.142,0.907-0.255,1.503-0.34
			c0.566-0.085,1.162-0.142,1.729-0.142c0.624,0,1.305,0.057,1.984,0.199c0.681,0.113,1.276,0.283,1.729,0.481
			c0.652,0.284,1.077,0.652,1.247,1.105c0.085,0.227,0.113,0.624,0.113,1.191v4.337c0,0.737,0.057,1.247,0.142,1.502
			c0.171,0.567,0.596,0.822,1.276,0.822c0.312,0,0.566-0.028,0.736-0.113S218.013,413.235,218.268,412.979z M213.137,408.359
			c-0.566,0.369-1.162,0.681-1.843,0.936c-0.736,0.312-1.247,0.539-1.53,0.708c-0.283,0.142-0.539,0.34-0.794,0.567
			c-0.453,0.453-0.709,0.963-0.709,1.587c0,0.511,0.199,0.936,0.567,1.276s0.822,0.482,1.417,0.482c0.482,0,0.964-0.113,1.418-0.34
			c0.425-0.255,0.765-0.567,0.992-0.964c0.312-0.51,0.481-1.275,0.481-2.268V408.359z M231.761,412.979l0.255,0.113
			c-0.368,0.822-1.219,1.248-2.552,1.248c-0.736,0-1.332-0.142-1.813-0.425c-0.312-0.17-0.652-0.482-0.992-0.936
			c-0.681,0.482-1.219,0.794-1.56,0.936c-0.68,0.283-1.445,0.425-2.324,0.425c-1.134,0-2.041-0.199-2.721-0.624
			c-0.652-0.425-0.992-0.963-0.992-1.672c0-0.652,0.283-1.19,0.821-1.644c0.312-0.227,0.652-0.425,1.049-0.567
			c0.426-0.142,0.992-0.283,1.758-0.454c0.879-0.17,1.56-0.312,1.956-0.425c0.453-0.113,0.794-0.255,1.077-0.425
			c0.34-0.17,0.566-0.369,0.681-0.624c0.113-0.255,0.198-0.567,0.198-1.02c0-0.907-0.227-1.559-0.681-1.984
			c-0.198-0.199-0.481-0.34-0.794-0.482c-0.312-0.113-0.651-0.17-0.992-0.17c-0.425,0-0.793,0.085-1.134,0.255
			c-0.34,0.17-0.566,0.397-0.736,0.68l-0.369,0.681c-0.227,0.368-0.595,0.539-1.134,0.539c-0.34,0-0.623-0.085-0.879-0.255
			c-0.227-0.17-0.34-0.397-0.34-0.652c0-0.397,0.368-0.737,1.105-1.021c0.397-0.142,0.907-0.255,1.503-0.34
			c0.566-0.085,1.162-0.142,1.729-0.142c0.624,0,1.304,0.057,1.984,0.199c0.681,0.113,1.275,0.283,1.729,0.481
			c0.651,0.284,1.077,0.652,1.247,1.105c0.085,0.227,0.113,0.624,0.113,1.191v4.337c0,0.737,0.057,1.247,0.142,1.502
			c0.17,0.567,0.596,0.822,1.275,0.822c0.312,0,0.567-0.028,0.737-0.113C231.307,413.433,231.505,413.235,231.761,412.979z
			 M226.63,408.359c-0.567,0.369-1.162,0.681-1.814,0.936c-0.766,0.312-1.275,0.539-1.559,0.708
			c-0.284,0.142-0.539,0.34-0.766,0.567c-0.482,0.453-0.737,0.963-0.737,1.587c0,0.511,0.198,0.936,0.567,1.276
			c0.368,0.34,0.851,0.482,1.417,0.482c0.482,0,0.964-0.113,1.417-0.34c0.426-0.255,0.766-0.567,0.992-0.964
			c0.312-0.51,0.482-1.275,0.482-2.268V408.359z M236.466,405.779c0.34-0.481,0.766-0.85,1.219-1.105
			c0.851-0.453,1.843-0.68,2.92-0.68c0.681,0,1.19,0.113,1.53,0.34c0.312,0.198,0.482,0.454,0.482,0.737
			c0,0.227-0.085,0.397-0.283,0.539c-0.199,0.142-0.426,0.227-0.737,0.227c-0.34,0-0.652-0.114-0.907-0.34l-0.481-0.397
			c-0.369-0.312-0.822-0.454-1.333-0.454c-0.708,0-1.247,0.34-1.644,1.021c-0.397,0.681-0.596,1.644-0.596,2.863v2.211l0.028,0.879
			c0,0.538,0.028,0.935,0.113,1.162c0.085,0.255,0.256,0.454,0.482,0.624c0.283,0.198,0.822,0.369,1.587,0.482v0.227h-6.831v-0.227
			c0.623-0.057,1.077-0.142,1.332-0.284c0.283-0.085,0.482-0.283,0.652-0.567c0.113-0.17,0.198-0.454,0.227-0.793
			c0.057-0.369,0.085-0.907,0.085-1.587v-2.863c0-0.793-0.028-1.36-0.085-1.701c-0.057-0.312-0.17-0.567-0.34-0.765
			c-0.171-0.227-0.397-0.397-0.624-0.482c-0.255-0.085-0.624-0.142-1.077-0.17v-0.255l3.997-0.425
			C236.353,404.702,236.466,405.298,236.466,405.779z M251.036,408.161h6.916v1.757h-6.916V408.161z M275.471,398.466
			c-0.652,0-1.36,0.028-2.098,0.057c-1.588,0.057-2.778,0.198-3.543,0.454c-0.794,0.255-1.446,0.652-1.928,1.247
			c-0.482,0.567-0.822,1.304-1.077,2.239l-0.341-0.028l0.284-4.309h20.862l0.284,4.309l-0.341,0.028
			c-0.283-1.077-0.708-1.899-1.304-2.466c-0.595-0.567-1.474-0.964-2.607-1.219c-0.936-0.198-2.58-0.312-4.848-0.312v11.962
			c0,0.822,0.057,1.417,0.17,1.786c0.113,0.396,0.341,0.708,0.652,0.963c0.312,0.227,0.623,0.397,0.992,0.482
			c0.368,0.114,0.851,0.17,1.445,0.199v0.255h-9.864v-0.255c0.595-0.028,1.077-0.085,1.445-0.199
			c0.341-0.085,0.681-0.255,0.964-0.482c0.312-0.255,0.539-0.567,0.652-0.963c0.113-0.369,0.198-0.964,0.198-1.786V398.466z
			 M293.074,397.672v7.994c0.368-0.312,0.68-0.595,0.963-0.765c0.284-0.199,0.624-0.34,0.992-0.482
			c0.766-0.284,1.616-0.425,2.58-0.425c1.219,0,2.211,0.17,3.004,0.539c0.567,0.284,0.964,0.624,1.162,1.021
			c0.199,0.397,0.312,0.964,0.312,1.757v3.43l0.028,0.879c0,0.538,0.028,0.935,0.113,1.162c0.085,0.255,0.255,0.454,0.481,0.624
			c0.284,0.198,0.822,0.369,1.588,0.482v0.227h-6.831v-0.227c0.538-0.057,0.935-0.113,1.162-0.199
			c0.227-0.085,0.453-0.227,0.623-0.396c0.198-0.199,0.312-0.482,0.397-0.794c0.057-0.34,0.113-0.85,0.113-1.502v-3.713
			c0-0.567-0.057-0.992-0.171-1.332c-0.113-0.34-0.312-0.624-0.566-0.851c-0.539-0.454-1.275-0.708-2.211-0.708
			c-2.494,0-3.741,1.502-3.741,4.479v1.871l0.028,0.879c0,0.538,0.028,0.935,0.113,1.162c0.085,0.255,0.255,0.454,0.481,0.624
			c0.283,0.198,0.822,0.369,1.588,0.482v0.227h-6.832v-0.227c0.624-0.057,1.077-0.142,1.332-0.284
			c0.284-0.085,0.482-0.283,0.652-0.567c0.113-0.17,0.198-0.454,0.227-0.822c0.057-0.34,0.085-0.879,0.085-1.559v-9.156
			c0-0.793-0.028-1.36-0.085-1.701c-0.057-0.312-0.17-0.567-0.34-0.793c-0.17-0.199-0.396-0.369-0.624-0.454
			c-0.255-0.085-0.623-0.142-1.077-0.17v-0.255L293.074,397.672z M308.324,407.735c-0.057,0.397-0.057,0.652-0.057,0.822
			c0,0.68,0.113,1.36,0.396,2.013c0.255,0.652,0.596,1.19,1.049,1.616c0.481,0.425,1.049,0.793,1.729,1.02
			c0.68,0.255,1.389,0.397,2.154,0.397c0.538,0,1.077-0.085,1.559-0.227c0.511-0.142,0.936-0.34,1.247-0.595
			c0.369-0.255,0.681-0.709,0.964-1.304l0.312,0.085c-0.256,0.907-0.851,1.616-1.729,2.069c-0.879,0.482-2.041,0.709-3.515,0.709
			c-1.248,0-2.354-0.142-3.261-0.454c-0.906-0.312-1.672-0.794-2.296-1.417c-0.878-0.879-1.304-1.956-1.304-3.26
			c0-1.757,0.822-3.118,2.494-4.139c1.191-0.708,2.58-1.077,4.11-1.077c0.822,0,1.588,0.113,2.268,0.34
			c0.709,0.227,1.305,0.539,1.786,0.964c0.766,0.652,1.134,1.445,1.134,2.438H308.324z M315.042,407.282
			c-0.057-0.765-0.255-1.36-0.567-1.786c-0.255-0.397-0.623-0.68-1.105-0.907c-0.453-0.227-0.935-0.34-1.474-0.34
			c-0.879,0-1.644,0.283-2.296,0.878c-0.681,0.567-1.049,1.276-1.19,2.154H315.042z M331.399,400.224v10.205
			c0,0.822,0.057,1.417,0.17,1.786c0.113,0.396,0.34,0.708,0.651,0.963c0.284,0.227,0.624,0.397,0.992,0.482
			c0.369,0.114,0.822,0.17,1.418,0.199v0.255h-7.115v-0.255c0.595-0.028,1.049-0.085,1.445-0.199
			c0.341-0.085,0.681-0.255,0.964-0.482c0.312-0.255,0.539-0.567,0.652-0.963c0.113-0.369,0.17-0.964,0.17-1.786v-8.646
			c0-0.794-0.057-1.389-0.17-1.757c-0.113-0.397-0.341-0.709-0.652-0.964c-0.283-0.227-0.595-0.397-0.964-0.51
			c-0.368-0.085-0.851-0.142-1.445-0.17v-0.255h5.952l12.529,12.132v-8.476c0-0.794-0.057-1.389-0.17-1.786
			c-0.113-0.369-0.34-0.681-0.652-0.936c-0.312-0.227-0.623-0.397-0.991-0.51c-0.369-0.085-0.851-0.142-1.418-0.17v-0.255h7.115
			v0.255c-1.049,0-1.843,0.227-2.409,0.681c-0.312,0.255-0.539,0.567-0.652,0.964c-0.142,0.368-0.198,0.963-0.198,1.757v12.331
			h-0.681L331.399,400.224z M354.359,407.735c-0.057,0.397-0.057,0.652-0.057,0.822c0,0.68,0.113,1.36,0.397,2.013
			c0.255,0.652,0.595,1.19,1.048,1.616c0.482,0.425,1.049,0.793,1.729,1.02c0.681,0.255,1.389,0.397,2.154,0.397
			c0.539,0,1.077-0.085,1.56-0.227c0.51-0.142,0.935-0.34,1.247-0.595c0.368-0.255,0.68-0.709,0.964-1.304l0.312,0.085
			c-0.255,0.907-0.851,1.616-1.729,2.069c-0.878,0.482-2.041,0.709-3.515,0.709c-1.247,0-2.353-0.142-3.26-0.454
			c-0.907-0.312-1.673-0.794-2.296-1.417c-0.879-0.879-1.304-1.956-1.304-3.26c0-1.757,0.821-3.118,2.494-4.139
			c1.19-0.708,2.551-1.077,4.11-1.077c0.822,0,1.587,0.113,2.268,0.34c0.709,0.227,1.304,0.539,1.786,0.964
			c0.765,0.652,1.134,1.445,1.134,2.438H354.359z M361.077,407.282c-0.058-0.765-0.256-1.36-0.567-1.786
			c-0.255-0.397-0.624-0.68-1.105-0.907c-0.453-0.227-0.936-0.34-1.474-0.34c-0.879,0-1.645,0.283-2.297,0.878
			c-0.68,0.567-1.049,1.276-1.19,2.154H361.077z M369.297,404.164h3.912v0.425h-3.912v6.832c0,0.822,0.198,1.417,0.567,1.757
			c0.17,0.199,0.425,0.369,0.766,0.454c0.312,0.114,0.651,0.17,1.021,0.17c0.453,0,0.85-0.057,1.162-0.199
			c0.283-0.142,0.623-0.425,0.992-0.793l0.227,0.142c-0.341,0.454-0.794,0.822-1.418,1.049c-0.595,0.227-1.36,0.34-2.268,0.34
			c-1.219,0-2.098-0.17-2.664-0.539c-0.283-0.199-0.482-0.425-0.596-0.681c-0.085-0.255-0.113-0.737-0.113-1.417v-7.115h-1.672
			v-0.17c0.68-0.17,1.304-0.482,1.87-0.964c0.341-0.283,0.596-0.567,0.822-0.851c0.198-0.283,0.396-0.652,0.567-1.105l0.17-0.396
			h0.566V404.164z M378.142,397.672v7.994c0.34-0.312,0.68-0.595,0.936-0.765c0.283-0.199,0.623-0.34,1.02-0.482
			c0.737-0.284,1.588-0.425,2.552-0.425c1.219,0,2.211,0.17,3.005,0.539c0.566,0.284,0.964,0.624,1.162,1.021
			c0.227,0.397,0.34,0.964,0.34,1.757v3.43v0.879c0,0.538,0.057,0.935,0.113,1.162c0.085,0.255,0.255,0.454,0.482,0.624
			c0.283,0.198,0.821,0.369,1.615,0.482v0.227h-6.831v-0.227c0.538-0.057,0.936-0.113,1.162-0.199
			c0.227-0.085,0.425-0.227,0.623-0.396c0.171-0.199,0.312-0.482,0.369-0.794c0.085-0.34,0.113-0.85,0.113-1.502v-3.713
			c0-0.567-0.057-0.992-0.17-1.332c-0.113-0.34-0.312-0.624-0.567-0.851c-0.51-0.454-1.247-0.708-2.211-0.708
			c-2.494,0-3.713,1.502-3.713,4.479v1.871v0.879c0,0.538,0.057,0.935,0.113,1.162c0.085,0.255,0.255,0.454,0.481,0.624
			c0.283,0.198,0.822,0.369,1.588,0.482v0.227h-6.804v-0.227c0.624-0.057,1.049-0.142,1.304-0.284
			c0.284-0.085,0.482-0.283,0.652-0.567c0.113-0.17,0.198-0.454,0.255-0.822c0.028-0.34,0.057-0.879,0.057-1.559v-9.156
			c0-0.793-0.028-1.36-0.085-1.701c-0.028-0.312-0.142-0.567-0.34-0.793c-0.17-0.199-0.368-0.369-0.624-0.454
			c-0.255-0.085-0.595-0.142-1.077-0.17v-0.255L378.142,397.672z M393.364,407.735c-0.028,0.397-0.057,0.652-0.057,0.822
			c0,0.68,0.142,1.36,0.396,2.013c0.256,0.652,0.624,1.19,1.077,1.616c0.454,0.425,1.021,0.793,1.701,1.02
			c0.681,0.255,1.417,0.397,2.154,0.397c0.567,0,1.077-0.085,1.587-0.227c0.482-0.142,0.907-0.34,1.248-0.595
			c0.368-0.255,0.68-0.709,0.936-1.304l0.312,0.085c-0.255,0.907-0.822,1.616-1.701,2.069c-0.879,0.482-2.069,0.709-3.515,0.709
			c-1.275,0-2.353-0.142-3.26-0.454c-0.907-0.312-1.673-0.794-2.324-1.417c-0.851-0.879-1.305-1.956-1.305-3.26
			c0-1.757,0.822-3.118,2.495-4.139c1.19-0.708,2.579-1.077,4.11-1.077c0.821,0,1.587,0.113,2.296,0.34
			c0.708,0.227,1.275,0.539,1.757,0.964c0.766,0.652,1.135,1.445,1.135,2.438H393.364z M400.11,407.282
			c-0.085-0.765-0.255-1.36-0.566-1.786c-0.283-0.397-0.652-0.68-1.105-0.907c-0.482-0.227-0.964-0.34-1.475-0.34
			c-0.878,0-1.672,0.283-2.324,0.878c-0.651,0.567-1.049,1.276-1.162,2.154H400.11z M408.756,405.779
			c0.368-0.481,0.765-0.85,1.247-1.105c0.851-0.453,1.813-0.68,2.919-0.68c0.652,0,1.163,0.113,1.531,0.34
			c0.312,0.198,0.481,0.454,0.481,0.737c0,0.227-0.113,0.397-0.283,0.539c-0.198,0.142-0.453,0.227-0.737,0.227
			c-0.368,0-0.68-0.114-0.906-0.34l-0.482-0.397c-0.396-0.312-0.851-0.454-1.36-0.454c-0.709,0-1.247,0.34-1.645,1.021
			c-0.368,0.681-0.566,1.644-0.566,2.863v2.211v0.879c0,0.538,0.057,0.935,0.142,1.162c0.085,0.255,0.227,0.454,0.453,0.624
			c0.312,0.198,0.822,0.369,1.616,0.482v0.227h-6.832v-0.227c0.624-0.057,1.049-0.142,1.333-0.284
			c0.255-0.085,0.453-0.283,0.623-0.567c0.113-0.17,0.198-0.454,0.255-0.793c0.028-0.369,0.058-0.907,0.058-1.587v-2.863
			c0-0.793-0.029-1.36-0.086-1.701c-0.028-0.312-0.142-0.567-0.312-0.765c-0.198-0.227-0.396-0.397-0.651-0.482
			c-0.256-0.085-0.596-0.142-1.078-0.17v-0.255l3.997-0.425C408.67,404.702,408.756,405.298,408.756,405.779z M415.474,398.098
			l4.479-0.454v13.096v0.879c0,0.538,0.057,0.935,0.113,1.162c0.085,0.255,0.255,0.454,0.482,0.624
			c0.283,0.198,0.821,0.369,1.615,0.482v0.227h-6.831v-0.227c0.595-0.057,1.049-0.142,1.304-0.284
			c0.283-0.085,0.481-0.283,0.652-0.567c0.113-0.17,0.198-0.454,0.255-0.822c0.028-0.34,0.057-0.879,0.057-1.559v-9.185
			c0-0.793-0.028-1.36-0.085-1.672c-0.028-0.34-0.17-0.595-0.341-0.793c-0.17-0.227-0.368-0.397-0.623-0.482
			s-0.596-0.142-1.077-0.17V398.098z M436.195,412.979l0.256,0.113c-0.369,0.822-1.19,1.248-2.523,1.248
			c-0.736,0-1.36-0.142-1.842-0.425c-0.312-0.17-0.624-0.482-0.992-0.936c-0.681,0.482-1.19,0.794-1.56,0.936
			c-0.651,0.283-1.445,0.425-2.324,0.425c-1.134,0-2.041-0.199-2.693-0.624c-0.68-0.425-0.992-0.963-0.992-1.672
			c0-0.652,0.256-1.19,0.822-1.644c0.284-0.227,0.652-0.425,1.049-0.567c0.397-0.142,0.964-0.283,1.729-0.454
			c0.907-0.17,1.559-0.312,1.984-0.425c0.425-0.113,0.794-0.255,1.077-0.425c0.312-0.17,0.538-0.369,0.68-0.624
			c0.114-0.255,0.171-0.567,0.171-1.02c0-0.907-0.228-1.559-0.681-1.984c-0.198-0.199-0.453-0.34-0.766-0.482
			c-0.34-0.113-0.68-0.17-1.021-0.17c-0.425,0-0.794,0.085-1.105,0.255c-0.34,0.17-0.595,0.397-0.736,0.68l-0.397,0.681
			c-0.198,0.368-0.566,0.539-1.105,0.539c-0.34,0-0.652-0.085-0.879-0.255c-0.227-0.17-0.368-0.397-0.368-0.652
			c0-0.397,0.368-0.737,1.134-1.021c0.396-0.142,0.879-0.255,1.474-0.34c0.596-0.085,1.162-0.142,1.729-0.142
			c0.652,0,1.304,0.057,2.013,0.199c0.681,0.113,1.247,0.283,1.729,0.481c0.651,0.284,1.077,0.652,1.247,1.105
			c0.057,0.227,0.113,0.624,0.113,1.191v4.337c0,0.737,0.028,1.247,0.113,1.502c0.198,0.567,0.624,0.822,1.275,0.822
			c0.312,0,0.567-0.028,0.766-0.113C435.741,413.433,435.968,413.235,436.195,412.979z M431.065,408.359
			c-0.539,0.369-1.162,0.681-1.814,0.936c-0.737,0.312-1.247,0.539-1.531,0.708c-0.312,0.142-0.566,0.34-0.793,0.567
			c-0.482,0.453-0.709,0.963-0.709,1.587c0,0.511,0.17,0.936,0.539,1.276c0.368,0.34,0.85,0.482,1.417,0.482
			c0.51,0,0.964-0.113,1.417-0.34c0.454-0.255,0.794-0.567,1.021-0.964c0.312-0.51,0.454-1.275,0.454-2.268V408.359z
			 M440.872,403.994c0.142,0.454,0.227,0.879,0.227,1.276v0.198c1.275-0.992,2.778-1.474,4.535-1.474
			c1.333,0,2.382,0.227,3.175,0.708c0.794,0.454,1.191,1.105,1.191,1.956v4.961c0,0.538,0.057,0.935,0.142,1.162
			c0.057,0.255,0.227,0.454,0.453,0.624c0.283,0.198,0.822,0.369,1.588,0.482v0.227h-6.804v-0.227
			c0.624-0.057,1.077-0.17,1.332-0.284c0.284-0.085,0.482-0.283,0.652-0.567c0.113-0.17,0.198-0.454,0.227-0.822
			c0.057-0.34,0.085-0.879,0.085-1.559v-2.466c0-0.879-0.057-1.502-0.113-1.899c-0.085-0.396-0.227-0.708-0.453-0.935
			c-0.227-0.284-0.567-0.51-1.021-0.652c-0.426-0.142-0.907-0.227-1.446-0.227c-0.595,0-1.134,0.085-1.615,0.255
			c-0.511,0.17-0.879,0.397-1.19,0.709c-0.283,0.312-0.511,0.652-0.596,1.049c-0.113,0.397-0.142,1.049-0.142,1.956v2.296v0.879
			c0,0.538,0.057,0.935,0.142,1.162c0.085,0.255,0.227,0.454,0.454,0.624c0.312,0.198,0.821,0.369,1.615,0.482v0.227h-6.831v-0.227
			c0.623-0.057,1.049-0.142,1.332-0.284c0.255-0.085,0.453-0.283,0.624-0.567c0.113-0.17,0.198-0.454,0.255-0.793
			c0.028-0.369,0.057-0.907,0.057-1.587v-2.863c0-0.793-0.028-1.36-0.085-1.701c-0.028-0.312-0.142-0.567-0.341-0.765
			c-0.17-0.227-0.368-0.397-0.623-0.482s-0.596-0.142-1.077-0.17v-0.255L440.872,403.994z"/>
		<path d="M464.145,414.51c-0.085-0.397-0.142-0.794-0.142-1.219c-0.766,0.368-1.475,0.624-2.154,0.793
			c-0.681,0.17-1.39,0.255-2.154,0.255c-1.588,0-2.92-0.369-4.025-1.077c-0.709-0.454-1.247-1.021-1.645-1.701
			c-0.368-0.68-0.566-1.417-0.566-2.239c0-0.85,0.227-1.644,0.623-2.381c0.426-0.737,0.992-1.333,1.729-1.814
			c1.162-0.765,2.551-1.134,4.167-1.134c0.794,0,1.445,0.085,2.013,0.255c0.566,0.17,1.219,0.481,1.956,0.935v-4.365
			c0-0.85-0.199-1.446-0.567-1.842c-0.368-0.369-0.992-0.539-1.843-0.539v-0.284l4.734-0.454v13.578
			c0,0.878,0.198,1.531,0.566,1.899c0.369,0.369,0.992,0.567,1.843,0.567v0.283L464.145,414.51z M463.947,409.068
			c0-1.077-0.085-1.899-0.199-2.438c-0.113-0.539-0.34-0.992-0.651-1.332c-0.283-0.312-0.652-0.539-1.134-0.737
			c-0.454-0.17-0.936-0.255-1.418-0.255c-1.105,0-2.04,0.396-2.862,1.162c-0.482,0.482-0.851,1.049-1.134,1.701
			c-0.256,0.652-0.397,1.304-0.397,1.984s0.142,1.332,0.397,1.984c0.255,0.652,0.595,1.19,1.049,1.672
			c0.765,0.793,1.7,1.19,2.806,1.19c0.539,0,1.049-0.113,1.531-0.312c0.481-0.198,0.879-0.482,1.162-0.85
			c0.312-0.369,0.538-0.822,0.651-1.389C463.862,410.91,463.947,410.117,463.947,409.068z M470.579,414.113v-3.316h0.255
			c0.283,0.793,0.652,1.446,1.077,1.956c0.766,0.878,1.701,1.332,2.75,1.332c0.651,0,1.219-0.17,1.7-0.454
			c0.511-0.34,0.766-0.793,0.766-1.389c0-0.51-0.198-0.936-0.566-1.304c-0.199-0.198-0.454-0.368-0.766-0.539
			c-0.312-0.142-0.851-0.397-1.588-0.68c-1.304-0.51-2.154-0.964-2.579-1.304c-0.624-0.51-0.936-1.077-0.936-1.729
			c0-0.708,0.312-1.332,0.936-1.814c0.709-0.595,1.644-0.879,2.835-0.879c0.51,0,0.992,0.057,1.445,0.199l0.538,0.17
			c0.171,0.057,0.312,0.085,0.426,0.085c0.198,0,0.396-0.085,0.566-0.284h0.312l0.17,2.58h-0.34
			c-0.114-0.368-0.228-0.652-0.341-0.878c-0.142-0.227-0.312-0.454-0.566-0.652c-0.312-0.312-0.681-0.539-1.105-0.708
			c-0.426-0.17-0.822-0.255-1.248-0.255c-0.566,0-1.049,0.17-1.474,0.481c-0.396,0.312-0.595,0.709-0.595,1.163
			c0,0.368,0.17,0.737,0.538,1.049c0.368,0.283,0.936,0.567,1.701,0.822l1.615,0.567c0.964,0.34,1.701,0.766,2.183,1.276
			c0.482,0.482,0.737,1.077,0.737,1.757c0,0.822-0.368,1.502-1.049,2.041c-0.822,0.624-1.843,0.936-3.09,0.936
			c-0.681,0-1.389-0.114-2.069-0.312c-0.453-0.142-0.737-0.227-0.822-0.227c-0.085-0.028-0.198-0.028-0.34-0.028
			c-0.368,0-0.652,0.113-0.822,0.34H470.579z"/>
	</g>
</g>
</svg>
